<?xml version="1.0" encoding="UTF-8"?>
<svg version="1.1" xmlns="http://www.w3.org/2000/svg" width="1024" height="1024">
<path d="M0 0 C0.33 0.66 0.66 1.32 1 2 C-1.19851776 3.09925888 -2.72615885 3.26386676 -5.1640625 3.5078125 C-28.39079692 6.08253549 -52.91241792 11.90491202 -72 26 C-73.093125 26.598125 -74.18625 27.19625 -75.3125 27.8125 C-101.35957729 42.39886328 -119.13865418 70.02257094 -127.45214844 97.99560547 C-130.02959862 107.42558141 -131.51976749 117.2452772 -132 127 C-132.04125 127.79664063 -132.0825 128.59328125 -132.125 129.4140625 C-132.99333146 164.4729453 -121.16780526 197.77387687 -98 224 C-97.40058594 224.68320312 -96.80117188 225.36640625 -96.18359375 226.0703125 C-76.61848726 246.94539372 -46.91192022 260.01856994 -19 264 C-18.22398437 264.11214844 -17.44796875 264.22429687 -16.6484375 264.33984375 C21.12113109 268.71631757 57.03774163 258.76459913 86.85131836 235.27832031 C96.11001977 228.12310056 96.11001977 228.12310056 103 219 C103.66 219 104.32 219 105 219 C105.23589844 218.47535156 105.47179687 217.95070313 105.71484375 217.41015625 C107.05762122 214.89193832 108.63165164 212.61272832 110.27441406 210.28271484 C121.06321496 194.82749172 127.67937013 178.28706591 132 160 C132.17789062 159.27055176 132.35578125 158.54110352 132.5390625 157.78955078 C134.91490962 147.66155963 135.26631937 137.63140556 135.3125 127.25 C135.31813965 126.05439453 135.3237793 124.85878906 135.32958984 123.62695312 C135.23319503 111.752419 133.7425237 100.22613634 130.4375 88.8125 C130.18572998 87.93609863 129.93395996 87.05969727 129.67456055 86.15673828 C124.83925624 69.63714448 124.83925624 69.63714448 115 56 C114.34 56 113.68 56 113 56 C113 54.68 113 53.36 113 52 C111.43079945 49.50526202 111.43079945 49.50526202 109.3125 47.0625 C108.21808594 45.74958984 108.21808594 45.74958984 107.1015625 44.41015625 C103.95177326 40.79785148 101.01447734 37.67631823 97 35 C95.33333333 33.33333333 93.66666667 31.66666667 92 30 C87.2835792 25.40950305 82.17184247 21.61066052 76.6875 18 C76.07656494 17.58975586 75.46562988 17.17951172 74.83618164 16.75683594 C73.27495826 15.75394948 71.64050196 14.86715224 70 14 C68.515 14.495 68.515 14.495 67 15 C66.67 13.68 66.34 12.36 66 11 C67.98 11 69.96 11 72 11 C72 11.66 72 12.32 72 13 C72.63679688 13.0928125 73.27359375 13.185625 73.9296875 13.28125 C78.17120104 14.27417429 82.09109401 15.87124311 86.125 17.5 C87.44745728 18.03294678 87.44745728 18.03294678 88.79663086 18.57666016 C100.82876396 23.49163153 112.49651092 29.08772738 123.953125 35.21875 C138.13117522 42.73704565 152.53291171 49.82205933 166.89422607 56.98144531 C170.71341715 58.88590767 174.53146949 60.79265004 178.34960938 62.69921875 C183.98009332 65.5105207 189.61120947 68.32055048 195.24291992 71.12939453 C201.23593544 74.11853586 207.22646467 77.11262539 213.21616936 80.10839462 C218.32835948 82.66496814 223.44292814 85.21674424 228.55854797 87.76644897 C233.11803847 90.03931098 237.67631709 92.3145994 242.23461914 94.58984375 C244.61414218 95.77708854 246.99402347 96.96361557 249.37426758 98.14941406 C261.51789938 104.19988423 273.63762566 110.27636301 285.61979675 116.6415863 C290.21322901 119.07704598 294.83422873 121.43702523 299.5078125 123.71484375 C300.61511719 124.25560547 301.72242188 124.79636719 302.86328125 125.35351562 C305.10540678 126.44235623 307.35036699 127.52537291 309.59765625 128.60351562 C311.22380859 129.40112305 311.22380859 129.40112305 312.8828125 130.21484375 C313.84590332 130.68011475 314.80899414 131.14538574 315.80126953 131.62475586 C318 133 318 133 319 136 C317.37558594 136.81220703 315.75116402 137.62439836 314.12670898 138.43652344 C312.68338271 139.15826942 311.24019056 139.88028366 309.79711914 140.60253906 C306.2622545 142.37130673 302.72622391 144.13745578 299.18359375 145.890625 C291.76313265 149.56915252 284.39820119 153.34272216 277.0625 157.1875 C261.85113734 165.15684362 246.55155862 172.95414802 231.26239014 180.77279663 C224.77301944 184.09170657 218.28630445 187.41576621 211.80078125 190.7421875 C209.06087084 192.14710085 206.32093368 193.55196204 203.58099365 194.95681763 C201.84946086 195.84481238 200.11805156 196.73304798 198.38677979 197.62155151 C189.72913101 202.0644015 181.06346812 206.48815714 172.35348511 210.82763672 C167.48749384 213.25263581 162.63173341 215.69738337 157.77886963 218.14854431 C111.70195159 241.41650031 111.70195159 241.41650031 93 249 C92.11570312 249.36432129 91.23140625 249.72864258 90.3203125 250.10400391 C74.90307434 256.41334104 59.11117051 261.15030854 42.80371094 264.55712891 C40.91493977 264.9504315 40.91493977 264.9504315 39 266 C37.21277422 266.20793964 35.41951751 266.36524351 33.625 266.49609375 C32.54476563 266.57843262 31.46453125 266.66077148 30.3515625 266.74560547 C29.24554687 266.82955566 28.13953125 266.91350586 27 267 C24.99971437 267.17515355 22.99970149 267.35345514 21 267.53515625 C18 267.79882812 18 267.79882812 15 268.0625 C13.515 268.19881836 13.515 268.19881836 12 268.33789062 C-7.02885683 269.98557159 -7.02885683 269.98557159 -11 268 C-12.60163177 267.76842998 -14.21009574 267.58327817 -15.8203125 267.421875 C-51.66199664 263.62223945 -84.72914435 254.04864038 -117 238 C-117.33 238.66 -117.66 239.32 -118 240 C-118.91845703 238.91912109 -118.91845703 238.91912109 -119.85546875 237.81640625 C-123.67531463 234.0125933 -128.46183617 232.13710152 -133.3125 229.9375 C-135.38374247 228.97334947 -137.45402509 228.00713475 -139.5234375 227.0390625 C-141.12396973 226.29317871 -141.12396973 226.29317871 -142.75683594 225.53222656 C-148.0258078 223.04291104 -153.23203725 220.43143871 -158.4375 217.8125 C-159.44538574 217.30605957 -160.45327148 216.79961914 -161.49169922 216.27783203 C-163.43874642 215.29903923 -165.38553457 214.31973089 -167.33203125 213.33984375 C-169.70763584 212.14682417 -172.0867219 210.96137727 -174.46875 209.78125 C-181.19705741 206.44585667 -187.87228788 203.03153825 -194.5 199.5 C-201.73162718 195.64794893 -209.02593637 191.94649888 -216.36621094 188.30664062 C-222.18516032 185.41982036 -228.00003559 182.52485155 -233.8125 179.625 C-234.47061676 179.29670197 -235.12873352 178.96840393 -235.80679321 178.63015747 C-244.28491131 174.39740626 -252.71758887 170.09254616 -261.08129883 165.63720703 C-268.34222234 161.78310532 -275.70246247 158.13507143 -283.06396484 154.4777832 C-290.34991214 150.84890003 -297.57564148 147.11952059 -304.76171875 143.296875 C-309.47338394 140.79085272 -314.21801824 138.36945042 -319 136 C-318 133 -318 133 -315.06689453 131.25756836 C-313.76054433 130.60814884 -312.44871727 129.96967801 -311.1328125 129.33984375 C-310.43124023 128.9939621 -309.72966797 128.64808044 -309.00683594 128.29171753 C-307.50069267 127.55044115 -305.99232241 126.81367604 -304.48199463 126.08096313 C-301.32368841 124.54875484 -298.17585578 122.9956195 -295.02755737 121.44297791 C-293.47056493 120.6752029 -291.91305079 119.90848492 -290.35501099 119.14283752 C-284.89526602 116.45666131 -279.48748501 113.68849387 -274.125 110.8125 C-265.16093984 106.02093459 -256.06301048 101.50239958 -246.95361328 96.99536133 C-241.80447461 94.43989281 -236.6871345 91.86012904 -231.65625 89.078125 C-225.22755578 85.53160235 -218.65558966 82.28638851 -212.07733154 79.0289917 C-208.72734213 77.3695978 -205.38138644 75.70211425 -202.03515625 74.03515625 C-201.38331863 73.71053909 -200.73148102 73.38592194 -200.05989075 73.0514679 C-198.06054624 72.05557444 -196.06144859 71.0591879 -194.0625 70.0625 C-193.36722198 69.71583282 -192.67194397 69.36916565 -191.95559692 69.01199341 C-183.4117927 64.74835724 -174.9086605 60.43153408 -166.50585938 55.89453125 C-161.31649277 53.11159017 -156.017419 50.60411444 -150.64038086 48.20483398 C-148.00132411 47.01424082 -146.06758143 46.06758143 -144 44 C-142.00710614 43.31238201 -140.00592142 42.64863216 -138 42 C-136.04301906 41.11436875 -134.10188204 40.1931096 -132.17578125 39.2421875 C-131.07427734 38.70287598 -129.97277344 38.16356445 -128.83789062 37.60791016 C-127.67451172 37.0360498 -126.51113281 36.46418945 -125.3125 35.875 C-114.35666413 30.5386826 -103.34333005 25.46603392 -92 21 C-91.23848633 20.69900391 -90.47697266 20.39800781 -89.69238281 20.08789062 C-78.06956337 15.53962002 -66.28368757 11.8915981 -54.24511719 8.61376953 C-52.31877594 8.08714688 -50.39715426 7.54331335 -48.4765625 6.99609375 C-44.60608165 5.89857384 -40.87285602 4.91724272 -36.875 4.4375 C-35.92625 4.293125 -34.9775 4.14875 -34 4 C-33.67 3.34 -33.34 2.68 -33 2 C-32.29359375 2.02320313 -31.5871875 2.04640625 -30.859375 2.0703125 C-20.47594448 2.25293565 -10.30738226 1.15097389 0 0 Z " fill="#2D6AA0" transform="translate(512,326)"/>
<path d="M0 0 C1.98 0 3.96 0 6 0 C6 0.66 6 1.32 6 2 C6.63679687 2.0928125 7.27359375 2.185625 7.9296875 2.28125 C12.17120104 3.27417429 16.09109401 4.87124311 20.125 6.5 C21.00663818 6.85529785 21.88827637 7.2105957 22.79663086 7.57666016 C34.82876396 12.49163153 46.49651092 18.08772738 57.953125 24.21875 C72.13117522 31.73704565 86.53291171 38.82205933 100.89422607 45.98144531 C104.71341715 47.88590767 108.53146949 49.79265004 112.34960938 51.69921875 C117.98009332 54.5105207 123.61120947 57.32055048 129.24291992 60.12939453 C135.23593544 63.11853586 141.22646467 66.11262539 147.21616936 69.10839462 C152.32835948 71.66496814 157.44292814 74.21674424 162.55854797 76.76644897 C167.11803847 79.03931098 171.67631709 81.3145994 176.23461914 83.58984375 C178.61414218 84.77708854 180.99402347 85.96361557 183.37426758 87.14941406 C195.51789938 93.19988423 207.63762566 99.27636301 219.61979675 105.6415863 C224.21322901 108.07704598 228.83422873 110.43702523 233.5078125 112.71484375 C234.61511719 113.25560547 235.72242188 113.79636719 236.86328125 114.35351562 C239.10540678 115.44235623 241.35036699 116.52537291 243.59765625 117.60351562 C245.22380859 118.40112305 245.22380859 118.40112305 246.8828125 119.21484375 C247.84590332 119.68011475 248.80899414 120.14538574 249.80126953 120.62475586 C252 122 252 122 253 125 C251.37558594 125.81220703 249.75116402 126.62439836 248.12670898 127.43652344 C246.68338271 128.15826942 245.24019056 128.88028366 243.79711914 129.60253906 C240.2622545 131.37130673 236.72622391 133.13745578 233.18359375 134.890625 C224.14044113 139.37431431 215.18068461 144.00802183 206.24389648 148.70019531 C203.49914927 150.13973298 200.75028154 151.57106886 198 153 C197.11795898 153.4635791 196.23591797 153.9271582 195.32714844 154.40478516 C190.58499463 156.8511059 186.14659722 158.54386081 181 160 C178.07409053 161.34846263 175.26224683 162.89021687 172.4375 164.4375 C164.53940321 168.68218244 156.57333785 172.75600805 148.52905273 176.71655273 C143.73665409 179.08938917 138.9864408 181.52888407 134.26475525 184.03868103 C119.69856386 191.77370857 104.95197379 199.15323652 90.20874023 206.54321289 C86.20817404 208.54908781 82.21238346 210.56429895 78.21748257 212.58142757 C75.10158275 214.15248487 71.98212245 215.71636911 68.86168098 217.27838326 C67.38650275 218.0183866 65.9126605 218.7610602 64.44027519 219.50660515 C45.6776287 229 45.6776287 229 37 229 C37 229.66 37 230.32 37 231 C36.195625 231.2475 35.39125 231.495 34.5625 231.75 C30.88958643 233.0387416 27.45670815 234.6067204 23.953125 236.29296875 C23.30859375 236.52628906 22.6640625 236.75960937 22 237 C21.34 236.67 20.68 236.34 20 236 C20 236.66 20 237.32 20 238 C18.03125 238.65625 18.03125 238.65625 16.0625 239.3125 C15.24523437 239.58578125 14.42796875 239.8590625 13.5859375 240.140625 C11.9057249 240.69900381 10.22351885 241.25143199 8.5390625 241.796875 C7.76304687 242.04953125 6.98703125 242.3021875 6.1875 242.5625 C5.47980469 242.79066406 4.77210938 243.01882813 4.04296875 243.25390625 C1.94594239 243.968496 1.94594239 243.968496 -0.12109375 245.11328125 C-2.48403469 246.22843217 -3.59183255 245.8600598 -6 245 C-3.83347593 240.71072001 -1.78697912 238.97163842 2.4375 236.75 C14.33875542 230.11745476 25.74298277 221.45015111 34.5 210.9375 C35.325 209.968125 36.15 208.99875 37 208 C37.66 208 38.32 208 39 208 C39.23589844 207.47535156 39.47179687 206.95070313 39.71484375 206.41015625 C41.05762122 203.89193832 42.63165164 201.61272832 44.27441406 199.28271484 C55.06321496 183.82749172 61.67937013 167.28706591 66 149 C66.17789063 148.27055176 66.35578125 147.54110352 66.5390625 146.78955078 C68.91490962 136.66155963 69.26631937 126.63140556 69.3125 116.25 C69.31813965 115.05439453 69.3237793 113.85878906 69.32958984 112.62695312 C69.23319503 100.752419 67.7425237 89.22613634 64.4375 77.8125 C64.18572998 76.93609863 63.93395996 76.05969727 63.67456055 75.15673828 C58.83925624 58.63714448 58.83925624 58.63714448 49 45 C48.34 45 47.68 45 47 45 C47 43.68 47 42.36 47 41 C45.43079945 38.50526202 45.43079945 38.50526202 43.3125 36.0625 C42.58289063 35.18722656 41.85328125 34.31195313 41.1015625 33.41015625 C37.95177326 29.79785148 35.01447734 26.67631823 31 24 C29.33333333 22.33333333 27.66666667 20.66666667 26 19 C21.2835792 14.40950305 16.17184247 10.61066052 10.6875 7 C9.77109741 6.38463379 9.77109741 6.38463379 8.83618164 5.75683594 C7.27495826 4.75394948 5.64050196 3.86715224 4 3 C3.01 3.33 2.02 3.66 1 4 C0.67 2.68 0.34 1.36 0 0 Z " fill="#955869" transform="translate(578,337)"/>
<path d="M0 0 C0.33 0.66 0.66 1.32 1 2 C2.74577676 2.6958028 2.74577676 2.6958028 4.875 3.25 C19.29553359 7.8362773 31.15879554 17.77350301 42 28 C42.62648438 28.57363281 43.25296875 29.14726562 43.8984375 29.73828125 C64.67212972 49.43098949 75.07294739 78.54979733 75.99609375 106.65625 C76.30233377 131.33362765 68.6816989 156.1782866 54 176 C53.38511719 176.83789062 52.77023437 177.67578125 52.13671875 178.5390625 C37.07534118 198.1843376 16.87077934 212.95513232 -7 220 C-8.19496094 220.37125 -9.38992188 220.7425 -10.62109375 221.125 C-39.85688787 229.34010361 -72.2937871 224.18968206 -98.5625 209.5625 C-104.85512454 205.93237674 -110.52941272 201.7891974 -116 197 C-117.17949219 196.01773438 -117.17949219 196.01773438 -118.3828125 195.015625 C-122.5330495 191.51612202 -122.5330495 191.51612202 -124 190 C-124 189.34 -124 188.68 -124 188 C-124.99 187.67 -125.98 187.34 -127 187 C-128.67090819 185.13914843 -130.18634889 183.30310689 -131.6875 181.3125 C-132.12739258 180.73161621 -132.56728516 180.15073242 -133.02050781 179.55224609 C-152.29033567 153.55957519 -159.15324186 122.40526672 -155.57421875 90.33984375 C-152.14197667 69.64110777 -142.79359554 49.76410919 -129 34 C-128.41089844 33.2678125 -127.82179688 32.535625 -127.21484375 31.78125 C-115.73743321 17.94012646 -99.18721338 7.12601101 -82 2 C-81.67 1.34 -81.34 0.68 -81 0 C-78.84204102 -0.67016602 -78.84204102 -0.67016602 -76.00390625 -1.25390625 C-74.96943359 -1.46853516 -73.93496094 -1.68316406 -72.86914062 -1.90429688 C-71.23235352 -2.23010742 -71.23235352 -2.23010742 -69.5625 -2.5625 C-68.50611328 -2.78357422 -67.44972656 -3.00464844 -66.36132812 -3.23242188 C-45.15551538 -7.55720562 -20.59127298 -7.74199437 0 0 Z M-118.36328125 38.16796875 C-120.5450836 40.61012937 -122.26590143 43.2254423 -124 46 C-124.91530775 47.1261059 -125.83213205 48.25097989 -126.75 49.375 C-141.75801998 69.36036331 -147.56455886 96.49062041 -144.76123047 121.09570312 C-141.87918984 141.28423153 -134.48738486 158.96572883 -122 175 C-121.34 175.99 -120.68 176.98 -120 178 C-119.34 178 -118.68 178 -118 178 C-117.7525 178.5775 -117.505 179.155 -117.25 179.75 C-115.81700012 182.32939979 -114.21575324 184.06121592 -112 186 C-111.34 186 -110.68 186 -110 186 C-109.67 186.99 -109.34 187.98 -109 189 C-106.97075461 190.69945588 -104.97316216 192.23526453 -102.8125 193.75 C-101.87071899 194.41261841 -101.87071899 194.41261841 -100.90991211 195.08862305 C-77.71283078 211.03281781 -49.70973377 217.07373789 -22.00244141 212.37109375 C-6.49548346 209.49733417 8.64474469 203.97488502 21 194 C21.53334961 193.57589844 22.06669922 193.15179687 22.61621094 192.71484375 C44.52831062 175.16561054 57.67208892 153.44160655 63 126 C63.19335938 125.071875 63.38671875 124.14375 63.5859375 123.1875 C67.02926588 96.68036834 60.88597768 68.7935144 44.625 47.3125 C43.42982426 45.86404198 42.22105661 44.42670825 41 43 C40.03513672 41.81857422 40.03513672 41.81857422 39.05078125 40.61328125 C21.75624827 20.24984778 -3.45393082 7.44665619 -30 5 C-63.86313802 3.0897717 -94.51350151 13.64091331 -118.36328125 38.16796875 Z " fill="#4B5177" transform="translate(553,352)"/>
<path d="M0 0 C0.99 0.33 1.98 0.66 3 1 C-8.03723826 6.80100901 -19.07930742 12.58428292 -30.25 18.125 C-36.71395004 21.33139548 -43.12594567 24.61841307 -49.5 28 C-58.32195008 32.6781541 -67.23463761 37.15918586 -76.17895508 41.59790039 C-84.59964557 45.78310381 -93.0103192 49.98800021 -101.39859009 54.23782349 C-119.38073538 63.34716128 -137.35071106 72.31488957 -156 80 C-156.90169922 80.37302246 -157.80339844 80.74604492 -158.73242188 81.13037109 C-174.13088614 87.42898039 -189.91019993 92.15477307 -206.19628906 95.55712891 C-208.08506023 95.9504315 -208.08506023 95.9504315 -210 97 C-211.78722578 97.20793964 -213.58048249 97.36524351 -215.375 97.49609375 C-216.45523438 97.57843262 -217.53546875 97.66077148 -218.6484375 97.74560547 C-220.30746094 97.87153076 -220.30746094 97.87153076 -222 98 C-224.00028563 98.17515355 -226.00029851 98.35345514 -228 98.53515625 C-231 98.79882812 -231 98.79882812 -234 99.0625 C-234.99 99.15337891 -235.98 99.24425781 -237 99.33789062 C-256.02885683 100.98557159 -256.02885683 100.98557159 -260 99 C-261.60163177 98.76842998 -263.21009574 98.58327817 -264.8203125 98.421875 C-300.66199664 94.62223945 -333.72914435 85.04864038 -366 69 C-366.495 69.99 -366.495 69.99 -367 71 C-367.99 69.35 -368.98 67.7 -370 66 C-366.60055678 66.57792395 -363.77878475 67.42302373 -360.68359375 68.93359375 C-359.85174561 69.33030273 -359.01989746 69.72701172 -358.1628418 70.13574219 C-357.263479 70.56532227 -356.36411621 70.99490234 -355.4375 71.4375 C-322.46061632 86.88163949 -322.46061632 86.88163949 -287 93 C-287.76957031 92.814375 -287.76957031 92.814375 -288.5546875 92.625 C-294.80454594 90.94153645 -300.65142072 88.54075848 -306.5625 85.9375 C-307.37251465 85.58494141 -308.1825293 85.23238281 -309.01708984 84.86914062 C-309.77586426 84.52947266 -310.53463867 84.18980469 -311.31640625 83.83984375 C-312.34423218 83.38146118 -312.34423218 83.38146118 -313.39282227 82.91381836 C-315 82 -315 82 -316 80 C-311.93926111 81.28167071 -308.04837966 82.78990686 -304.13916016 84.4621582 C-292.43384356 89.45715692 -280.64470666 93.19632563 -268 95 C-267.22398437 95.11214844 -266.44796875 95.22429687 -265.6484375 95.33984375 C-239.56292074 98.36245125 -213.97111984 94.83364899 -190.1171875 83.78515625 C-189.41851563 83.52605469 -188.71984375 83.26695312 -188 83 C-187.34 83.33 -186.68 83.66 -186 84 C-186 84.66 -186 85.32 -186 86 C-186.99 86.495 -186.99 86.495 -188 87 C-185.52886494 86.58814416 -183.37526477 86.18763238 -181.125 85.0625 C-178.18967476 83.59483738 -175.16418706 82.85808463 -172 82 C-170.741875 81.62875 -169.48375 81.2575 -168.1875 80.875 C-165 80 -165 80 -163 80 C-163 79.34 -163 78.68 -163 78 C-162.29875 77.896875 -161.5975 77.79375 -160.875 77.6875 C-157.60440705 76.90540169 -154.98782257 75.52569663 -152 74 C-149.84318346 73.34097272 -148.24634705 73 -146 73 C-146 72.34 -146 71.68 -146 71 C-144.98374542 70.75557411 -144.98374542 70.75557411 -143.94696045 70.50621033 C-137.19520239 68.78801091 -131.18105033 66.47423039 -124.953125 63.37890625 C-123.9862677 62.90747696 -123.0194104 62.43604767 -122.02325439 61.95033264 C-118.67606306 60.31233607 -115.33757644 58.65749636 -112 57 C-110.71387107 56.36333277 -109.42765409 55.7268434 -108.14135742 55.09051514 C-98.74979758 50.44196117 -89.37586424 45.75852595 -80.00598145 41.06646729 C-76.99334087 39.5588429 -73.97920948 38.05421181 -70.96512604 36.54947472 C-56.84192711 29.49697695 -42.74059281 22.42232741 -28.80175781 15.01000977 C-23.58497961 12.23878961 -18.29870336 9.61039063 -13 7 C-11.14491292 6.08519744 -9.29070291 5.16861351 -7.4375 4.25 C-6.25994141 3.66992188 -6.25994141 3.66992188 -5.05859375 3.078125 C-2.78991825 1.93604192 -2.78991825 1.93604192 0 0 Z " fill="#262A3F" transform="translate(761,495)"/>
<path d="M0 0 C4.44032575 1.49356412 6.19615622 4.94433314 8.5 8.75 C9.2599627 9.97424026 10.0203758 11.19820104 10.78125 12.421875 C11.14871338 13.02056396 11.51617676 13.61925293 11.89477539 14.23608398 C12.96196491 15.93929677 14.08757703 17.60547086 15.21484375 19.26953125 C17.10025759 22.15334804 17.99483873 24.71647319 19 28 C19.474375 29.0725 19.94875 30.145 20.4375 31.25 C22.38815737 35.70301581 23.66069862 40.33501767 25 45 C25.5878125 46.85625 25.5878125 46.85625 26.1875 48.75 C26.99309442 51.97237766 27.07863095 54.69750023 27 58 C27.495 58.495 27.495 58.495 28 59 C28.10091059 61.73942574 28.13866203 64.44826228 28.125 67.1875 C28.13080078 68.32155273 28.13080078 68.32155273 28.13671875 69.47851562 C28.12927216 73.7714754 27.80396346 77.76861334 27 82 C26.84278972 83.51969942 26.6959109 85.04052664 26.5625 86.5625 C26.19041806 90.06239573 25.35100819 92.74168613 24 96 C23.78537245 97.43657372 23.57807548 98.8742478 23.375 100.3125 C22.41669501 105.49677291 20.34270364 109.88489133 18 114.5625 C17.64341309 115.27768799 17.28682617 115.99287598 16.91943359 116.72973633 C14.26964173 121.86517913 14.26964173 121.86517913 12 123 C12.98370031 119.89756058 14.02119264 116.95503169 15.41015625 114.0078125 C17.56953113 109.01372171 18.52894367 103.74525429 19.625 98.4375 C19.8415625 97.42236328 20.058125 96.40722656 20.28125 95.36132812 C20.87043237 92.57725957 21.43897282 89.78985503 22 87 C22.31324219 85.49759766 22.31324219 85.49759766 22.6328125 83.96484375 C25.87410092 57.79316387 20.06241659 30.23192997 4 9 C3.29788106 7.34795544 2.63028587 5.68076231 2 4 C1.34786461 2.65949948 0.68620031 1.32338632 0 0 Z " fill="#BE6660" transform="translate(593,391)"/>
<path d="M0 0 C0.495 0.99 0.495 0.99 1 2 C-1.21843313 3.10921656 -2.80854558 3.2826158 -5.26953125 3.54296875 C-16.33810322 4.82069671 -26.74912253 6.72941242 -37.3840332 10.10620117 C-38.20991943 10.36506104 -39.03580566 10.6239209 -39.88671875 10.890625 C-40.61076904 11.12813477 -41.33481934 11.36564453 -42.08081055 11.61035156 C-44 12 -44 12 -47 11 C-44.69 10.01 -42.38 9.02 -40 8 C-51.70212704 9.99408443 -62.74786951 13.25736456 -74 17 C-74 17.66 -74 18.32 -74 19 C-75.3921875 19.3403125 -75.3921875 19.3403125 -76.8125 19.6875 C-81.24471455 20.93575634 -85.30183351 22.90200551 -89.44921875 24.87890625 C-91.66105559 25.85103056 -93.65834651 26.46378103 -96 27 C-99.27837905 28.3381139 -102.47652281 29.74173069 -105.65234375 31.30859375 C-111.05020021 33.92237061 -114.978438 35.66906244 -121 35 C-118.08527045 32.65734399 -115.22449913 31.05803093 -111.80859375 29.546875 C-110.79120117 29.09594482 -109.77380859 28.64501465 -108.72558594 28.18041992 C-107.0979834 27.47236206 -107.0979834 27.47236206 -105.4375 26.75 C-104.31504883 26.26055908 -103.19259766 25.77111816 -102.03613281 25.2668457 C-86.39549502 18.51171969 -70.68022456 13.088675 -54.24511719 8.61376953 C-52.31877594 8.08714688 -50.39715426 7.54331335 -48.4765625 6.99609375 C-44.60608165 5.89857384 -40.87285602 4.91724272 -36.875 4.4375 C-35.92625 4.293125 -34.9775 4.14875 -34 4 C-33.67 3.34 -33.34 2.68 -33 2 C-32.29359375 2.02320313 -31.5871875 2.04640625 -30.859375 2.0703125 C-20.47594448 2.25293565 -10.30738226 1.15097389 0 0 Z " fill="#343750" transform="translate(512,326)"/>
<path d="M0 0 C4.33115163 1.34136715 8.25345243 3.02027463 12.2890625 5.08203125 C12.87360199 5.37808762 13.45814148 5.67414398 14.06039429 5.97917175 C16.53055746 7.23036462 18.99589828 8.49092381 21.46142578 9.7512207 C27.39214043 12.77691729 33.29179214 15.78044655 39.48046875 18.25390625 C48.42595924 21.88502993 57.01605884 26.30333313 65.64916992 30.61181641 C68.71368624 32.13804157 71.78537663 33.64915426 74.85742188 35.16015625 C76.8051431 36.12929324 78.75242545 37.09931286 80.69921875 38.0703125 C81.6188591 38.52036652 82.53849945 38.97042053 83.48600769 39.43411255 C84.32811295 39.85820404 85.1702182 40.28229553 86.0378418 40.71923828 C86.781082 41.08832306 87.5243222 41.45740784 88.29008484 41.837677 C90 43 90 43 91 46 C92.97659613 46.73315223 94.98311914 47.38629321 97 48 C99.40877755 49.12478099 101.78035241 50.27297186 104.1484375 51.4765625 C104.80582916 51.80667328 105.46322083 52.13678406 106.14053345 52.47689819 C108.22061317 53.52249397 110.29782644 54.5736447 112.375 55.625 C113.79278238 56.3389119 115.21074938 57.0524573 116.62890625 57.765625 C120.08808677 59.50618572 123.54470937 61.25173082 127 63 C124 64 124 64 122.07649231 63.33888245 C121.34975815 62.96996384 120.62302399 62.60104523 119.87426758 62.22094727 C119.04522415 61.80623672 118.21618073 61.39152618 117.36201477 60.96424866 C116.46524521 60.50296066 115.56847565 60.04167267 114.64453125 59.56640625 C113.24287971 58.86027443 113.24287971 58.86027443 111.81291199 58.13987732 C108.80796341 56.62338647 105.8102106 55.09324072 102.8125 53.5625 C100.84226232 52.56483549 98.87156385 51.56808041 96.90039062 50.57226562 C93.05229666 48.62689283 89.20697213 46.67620844 85.36376953 44.72119141 C80.6219882 42.3113542 75.86703117 39.92905009 71.10546875 37.55859375 C65.86276591 34.94598132 60.6570852 32.27787794 55.5 29.5 C50.30143241 26.72798368 45.08611536 24.00157519 39.8125 21.375 C39.2033374 21.07126465 38.5941748 20.7675293 37.96655273 20.45458984 C34.44421157 18.70260204 30.91777879 16.95901532 27.38867188 15.22070312 C23.97205529 13.53752339 20.55854112 11.84816151 17.14633179 10.15606689 C15.75944796 9.46984548 14.37144753 8.78587606 12.98233032 8.10418701 C11.0180147 7.14003036 9.05752066 6.16847823 7.09765625 5.1953125 C5.94789307 4.62828613 4.79812988 4.06125977 3.61352539 3.47705078 C1 2 1 2 0 0 Z " fill="#1C4D68" transform="translate(262,496)"/>
<path d="M0 0 C6.90222224 0.40601307 12.28250573 3.26902253 18.375 6.375 C19.38433594 6.87 20.39367187 7.365 21.43359375 7.875 C22.39136719 8.35710937 23.34914063 8.83921875 24.3359375 9.3359375 C25.20782715 9.77470215 26.0797168 10.2134668 26.97802734 10.66552734 C29 12 29 12 30 15 C28.37558594 15.81220703 26.75116402 16.62439836 25.12670898 17.43652344 C23.68338271 18.15826942 22.24019056 18.88028366 20.79711914 19.60253906 C17.2622545 21.37130673 13.72622391 23.13745578 10.18359375 24.890625 C1.14044113 29.37431431 -7.81931539 34.00802183 -16.75610352 38.70019531 C-18.59713883 39.66576316 -20.43979152 40.62825451 -22.28417969 41.58740234 C-24.14291196 42.5541971 -25.9975597 43.52887421 -27.84863281 44.51025391 C-29.19586426 45.21093994 -29.19586426 45.21093994 -30.5703125 45.92578125 C-31.37484863 46.34899658 -32.17938477 46.77221191 -33.00830078 47.20825195 C-33.66556152 47.46952881 -34.32282227 47.73080566 -35 48 C-35.66 47.67 -36.32 47.34 -37 47 C-35.35 46.34 -33.7 45.68 -32 45 C-32 44.01 -32 43.02 -32 42 C-29.21128823 40.66042079 -26.41856938 39.32941565 -23.625 38 C-22.43390625 37.42765625 -22.43390625 37.42765625 -21.21875 36.84375 C-20.07792969 36.30234375 -20.07792969 36.30234375 -18.9140625 35.75 C-18.2123291 35.41484375 -17.5105957 35.0796875 -16.78759766 34.734375 C-15 34 -15 34 -13 34 C-13 33.34 -13 32.68 -13 32 C-9.34378666 30.36637276 -5.77140334 28.90591468 -1.9375 27.75 C3.0775587 26.14483415 7.6498191 23.77036846 12.30297852 21.33691406 C16.80585875 19 16.80585875 19 19 19 C19.495 17.515 19.495 17.515 20 16 C20.66 16 21.32 16 22 16 C22 15.01 22 14.02 22 13 C20.49759766 12.20335937 20.49759766 12.20335937 18.96484375 11.390625 C17.62236564 10.67714013 16.27991943 9.96359525 14.9375 9.25 C14.28072266 8.90195312 13.62394531 8.55390625 12.94726562 8.1953125 C8.58437938 5.87417105 4.27982572 3.47105672 0 1 C0 0.67 0 0.34 0 0 Z " fill="#40345A" transform="translate(801,447)"/>
<path d="M0 0 C3.30497432 1.04018165 4.11152061 2.1766469 6 5.16796875 C6.68388792 6.49910474 7.34959771 7.839686 8 9.1875 C8.34957764 9.90292969 8.69915527 10.61835938 9.05932617 11.35546875 C12.37398071 18.38547586 14.35685767 25.39550556 16 33 C16.29777344 34.19367188 16.59554687 35.38734375 16.90234375 36.6171875 C20.7460924 53.65721607 20.60752977 72.13314996 16 89 C15.34 88.67 14.68 88.34 14 88 C14 86.68 14 85.36 14 84 C14.66 84 15.32 84 16 84 C15.98839844 83.09636719 15.97679687 82.19273437 15.96484375 81.26171875 C15.95582031 80.08222656 15.94679688 78.90273438 15.9375 77.6875 C15.92009766 75.92986328 15.92009766 75.92986328 15.90234375 74.13671875 C16 71 16 71 17 68 C17.09719057 65.2186346 17.13917492 62.46814773 17.125 59.6875 C17.12886719 58.94048828 17.13273438 58.19347656 17.13671875 57.42382812 C17.1256512 51.12086004 16.13485358 45.46583033 14.53515625 39.36328125 C13.64428272 35.42913174 13.12220969 31.43433522 12.5625 27.44140625 C12.376875 26.63574219 12.19125 25.83007812 12 25 C11.34 24.67 10.68 24.34 10 24 C9.2890625 22.1796875 9.2890625 22.1796875 8.625 19.875 C7.6470934 16.7367181 6.56382125 14.00832101 4.875 11.1875 C3.33198619 8.56437652 2.66139808 6.86605834 2 4 C1.34 3.67 0.68 3.34 0 3 C0 2.01 0 1.02 0 0 Z " fill="#EA845E" transform="translate(608,399)"/>
<path d="M0 0 C-2.95564708 1.33934716 -5.9149378 2.67044247 -8.875 4 C-9.71675781 4.3815625 -10.55851563 4.763125 -11.42578125 5.15625 C-12.23144531 5.5171875 -13.03710938 5.878125 -13.8671875 6.25 C-14.61081543 6.58515625 -15.35444336 6.9203125 -16.12060547 7.265625 C-18 8 -18 8 -20 8 C-20 8.66 -20 9.32 -20 10 C-35.74366228 16.56517091 -50.90561877 20.74354645 -68 22 C-65.03171001 20.02114001 -62.22552946 18.74135003 -58.9375 17.375 C-57.87402344 16.92898438 -56.81054688 16.48296875 -55.71484375 16.0234375 C-53 15 -53 15 -51 15 C-51 14.34 -51 13.68 -51 13 C-49.68 12.67 -48.36 12.34 -47 12 C-47 12.99 -47 13.98 -47 15 C-47.66 15.33 -48.32 15.66 -49 16 C-46.52886494 15.58814416 -44.37526477 15.18763238 -42.125 14.0625 C-39.18967476 12.59483738 -36.16418706 11.85808463 -33 11 C-31.741875 10.62875 -30.48375 10.2575 -29.1875 9.875 C-26 9 -26 9 -24 9 C-24 8.34 -24 7.68 -24 7 C-23.29875 6.896875 -22.5975 6.79375 -21.875 6.6875 C-18.60440705 5.90540169 -15.98782257 4.52569663 -13 3 C-10.84318346 2.34097272 -9.24634705 2 -7 2 C-7 1.34 -7 0.68 -7 0 C-3.98968256 -0.93423645 -3.13349732 -1.04449911 0 0 Z " fill="#3D406C" transform="translate(622,566)"/>
<path d="M0 0 C0.66 0.33 1.32 0.66 2 1 C1 2 0 3 -1 4 C-1.61875 4.7425 -1.61875 4.7425 -2.25 5.5 C-4.30508169 7.26149859 -6.48126147 8.06411649 -8.95849609 9.09912109 C-12.63620826 10.72202923 -16.14954393 12.65840248 -19.6875 14.5625 C-21.17037261 15.35584326 -22.65343914 16.14882419 -24.13671875 16.94140625 C-24.78342529 17.28888916 -25.43013184 17.63637207 -26.09643555 17.99438477 C-29.66699971 19.88064278 -33.23385937 21.53538976 -37 23 C-37 22.34 -37 21.68 -37 21 C-38.04800781 21.55880859 -38.04800781 21.55880859 -39.1171875 22.12890625 C-40.02726562 22.60199219 -40.93734375 23.07507813 -41.875 23.5625 C-42.77992188 24.03816406 -43.68484375 24.51382812 -44.6171875 25.00390625 C-45.40351563 25.33261719 -46.18984375 25.66132813 -47 26 C-47.66 25.67 -48.32 25.34 -49 25 C-43.49738878 21.78646016 -37.88838785 18.84903237 -32.19921875 15.98046875 C-30.82283989 15.28622551 -30.82283989 15.28622551 -29.4186554 14.57795715 C-27.49217958 13.60784194 -25.56510113 12.63892262 -23.63745117 11.67114258 C-21.66007595 10.67664542 -19.68450309 9.67855701 -17.71069336 8.67700195 C-14.85652598 7.22875614 -11.99733365 5.79092849 -9.13671875 4.35546875 C-8.25030197 3.90350632 -7.36388519 3.45154388 -6.4506073 2.98588562 C-5.63248062 2.57828506 -4.81435394 2.17068451 -3.97143555 1.75073242 C-2.8905793 1.20590462 -2.8905793 1.20590462 -1.78788757 0.65007019 C-1.19788467 0.43554703 -0.60788177 0.22102386 0 0 Z " fill="#323F70" transform="translate(332,389)"/>
<path d="M0 0 C1.98 0 3.96 0 6 0 C6 0.66 6 1.32 6 2 C6.94939453 2.13728516 6.94939453 2.13728516 7.91796875 2.27734375 C12.22519303 3.28727593 16.21404074 4.91253159 20.3125 6.5625 C21.1880957 6.913125 22.06369141 7.26375 22.96582031 7.625 C31.20588957 10.98195464 39.12664948 14.86539135 47 19 C43.51371731 20.16209423 43.13629782 19.88616059 39.98828125 18.34765625 C39.23095703 17.98349609 38.47363281 17.61933594 37.69335938 17.24414062 C36.90767578 16.85419922 36.12199219 16.46425781 35.3125 16.0625 C34.11657227 15.48338867 34.11657227 15.48338867 32.89648438 14.89257812 C30.92653557 13.93709398 28.96150061 12.97267894 27 12 C26.01 13.485 26.01 13.485 25 15 C25.99 16.32 26.98 17.64 28 19 C24.11828242 17.32294726 21.0231224 14.74397332 17.75 12.125 C13.04715945 8.43713248 8.60074585 5.21916345 3 3 C2.01 3.495 2.01 3.495 1 4 C0.67 2.68 0.34 1.36 0 0 Z " fill="#4C2D3E" transform="translate(578,337)"/>
<path d="M0 0 C0.66 0.33 1.32 0.66 2 1 C-3.97109948 11.74797907 -12.68766652 19.46596686 -23 26 C-23.83917969 26.55816406 -24.67835938 27.11632812 -25.54296875 27.69140625 C-28 29 -28 29 -32 29 C-32.33 29.99 -32.66 30.98 -33 32 C-35.5625 33.1875 -35.5625 33.1875 -38 34 C-38.66 33.34 -39.32 32.68 -40 32 C-39.27296875 31.59910156 -38.5459375 31.19820312 -37.796875 30.78515625 C-23.52645775 22.71688188 -10.35360636 12.80577628 0 0 Z " fill="#413F6F" transform="translate(615,545)"/>
<path d="M0 0 C0.33 0 0.66 0 1 0 C1.33 4.29 1.66 8.58 2 13 C1.67 13 1.34 13 1 13 C0.18231242 35.53987252 3.19274987 55.98764831 15.99609375 75.14453125 C16.32738281 75.75683594 16.65867187 76.36914062 17 77 C16.67 77.66 16.34 78.32 16 79 C13.56877645 76.79696222 12.19997554 74.72359017 10.80859375 71.76171875 C10.42123047 70.94123047 10.03386719 70.12074219 9.63476562 69.27539062 C9.23966797 68.42138672 8.84457031 67.56738281 8.4375 66.6875 C8.03853516 65.84509766 7.63957031 65.00269531 7.22851562 64.13476562 C-0.19056049 48.29336605 -2.03657613 32.86937771 -2.1875 15.5625 C-2.20063232 14.60230957 -2.21376465 13.64211914 -2.22729492 12.65283203 C-2.23700692 4.16454648 -2.23700692 4.16454648 0 0 Z " fill="#3485C0" transform="translate(407,441)"/>
<path d="M0 0 C2.125 0.9375 2.125 0.9375 4 2 C2.6078125 2.3403125 2.6078125 2.3403125 1.1875 2.6875 C-3.24471455 3.93575634 -7.30183351 5.90200551 -11.44921875 7.87890625 C-13.66105559 8.85103056 -15.65834651 9.46378103 -18 10 C-21.27837905 11.3381139 -24.47652281 12.74173069 -27.65234375 14.30859375 C-33.05020021 16.92237061 -36.978438 18.66906244 -43 18 C-38.18078817 14.11628223 -32.62848422 11.97600764 -27 9.5 C-25.92621094 9.01402344 -24.85242188 8.52804687 -23.74609375 8.02734375 C-17.37174548 5.21219836 -11.16763025 3.07913337 -4.36328125 1.56054688 C-1.99945425 1.09502655 -1.99945425 1.09502655 0 0 Z " fill="#364174" transform="translate(434,343)"/>
<path d="M0 0 C1.485 0.99 1.485 0.99 3 2 C3 2.99 3 3.98 3 5 C3.66 5 4.32 5 5 5 C5.12117187 5.59167969 5.24234375 6.18335938 5.3671875 6.79296875 C6.43720281 11.83850246 7.57611704 16.46865251 10.125 21 C11.20131266 23.46014323 11 25.32566956 11 28 C11.6288189 30.01222047 12.29618843 32.01276732 13 34 C14.10136512 38.07505093 14.04844962 41.92102683 13.9375 46.109375 C13.78485355 48.01263957 13.78485355 48.01263957 15 49 C15.12569503 51.1221998 15.17576773 53.24911345 15.1875 55.375 C15.20167969 56.53773438 15.21585938 57.70046875 15.23046875 58.8984375 C15 62 15 62 13 65 C12.94465088 64.40461426 12.88930176 63.80922852 12.83227539 63.19580078 C12.57981135 60.50512785 12.32123184 57.81507714 12.0625 55.125 C11.97548828 54.18785156 11.88847656 53.25070312 11.79882812 52.28515625 C11.71181641 51.38925781 11.62480469 50.49335938 11.53515625 49.5703125 C11.456604 48.74289551 11.37805176 47.91547852 11.29711914 47.06298828 C11.10222637 44.9418334 11.10222637 44.9418334 10 43 C9.98477517 41.65090073 10.01624128 40.30106389 10.07421875 38.953125 C10.12533653 33.93756894 9.16214069 29.55750465 7.8125 24.75 C7.59053955 23.93023682 7.3685791 23.11047363 7.13989258 22.26586914 C5.4337525 16.13395973 3.35359356 10.25406445 0.91796875 4.37109375 C0 2 0 2 0 0 Z " fill="#DD775D" transform="translate(637,394)"/>
<path d="M0 0 C0.33 0 0.66 0 1 0 C1 2.64 1 5.28 1 8 C1.66 8 2.32 8 3 8 C2.95875 9.051875 2.9175 10.10375 2.875 11.1875 C2.99425682 14.82483306 3.54584927 16.74954544 5 20 C5.33777362 21.66577246 5.67031643 23.33260754 6 25 C7.82118853 31.97229532 9.74288636 38.27841848 13.84765625 44.2421875 C15.6356256 46.96959838 16.71764414 50.00783633 18 53 C19.52361831 55.76003701 21.04786362 58.51956268 23 61 C23.66 61 24.32 61 25 61 C25.33 62.32 25.66 63.64 26 65 C25.01 65 24.02 65 23 65 C21.4361736 63.02593906 20.12581966 61.13417994 18.8125 59 C18.42102783 58.37424072 18.02955566 57.74848145 17.6262207 57.10375977 C10.80932592 45.99764458 5.19367015 34.69063665 2 22 C1.77570313 21.14019531 1.55140625 20.28039062 1.3203125 19.39453125 C-0.18140926 12.92478477 -0.20466051 6.61735654 0 0 Z " fill="#317EB4" transform="translate(399,467)"/>
<path d="M0 0 C-1.65 0.33 -3.3 0.66 -5 1 C-1.21129234 1.31277015 -1.21129234 1.31277015 1 -0.0625 C3.48016178 -1.22507583 4.44659432 -0.76070211 7 0 C6.49138428 0.21615967 5.98276855 0.43231934 5.45874023 0.6550293 C3.11451469 1.65718771 0.77607661 2.6722333 -1.5625 3.6875 C-2.36236328 4.02716797 -3.16222656 4.36683594 -3.98632812 4.71679688 C-9.17894 6.98459063 -13.48074036 9.58382241 -18 13 C-21.8422338 15.48756329 -25.38699159 17.44084747 -30 18 C-30 17.34 -30 16.68 -30 16 C-28.390625 14.78125 -28.390625 14.78125 -26.25 13.5 C-25.55390625 13.0771875 -24.8578125 12.654375 -24.140625 12.21875 C-22 11 -22 11 -19.77734375 9.9921875 C-17.73451734 9.12501248 -17.73451734 9.12501248 -17.3125 6.625 C-15.21887159 2.43774318 -11.26934315 1.48625598 -7 0 C-3.89726174 -0.9919535 -3.23630939 -1.0787698 0 0 Z " fill="#3E4F89" transform="translate(458,339)"/>
<path d="M0 0 C4.06073889 1.28167071 7.95162034 2.78990686 11.86083984 4.4621582 C27.14525275 10.98446131 42.40368136 14.78015453 59 16 C59 16.66 59 17.32 59 18 C55.60752452 19.13082516 53.76142069 18.88850516 50.23828125 18.44140625 C49.12001953 18.30283203 48.00175781 18.16425781 46.84960938 18.02148438 C45.68236328 17.87001953 44.51511719 17.71855469 43.3125 17.5625 C42.13365234 17.41490234 40.95480469 17.26730469 39.74023438 17.11523438 C36.82601145 16.7494817 33.91272078 16.37749874 31 16 C31.33 15.01 31.66 14.02 32 13 C31.39341553 12.90130615 30.78683105 12.8026123 30.16186523 12.70092773 C23.73560324 11.55053607 18.03940422 9.65804805 12.0625 7.0625 C11.22654297 6.71509766 10.39058594 6.36769531 9.52929688 6.00976562 C5.71934796 4.38479946 2.81398311 3.11443586 0 0 Z " fill="#26374B" transform="translate(445,575)"/>
<path d="M0 0 C1.42223909 4.50054407 0.06087524 7.87210595 -1.4375 12.1875 C-1.7046582 12.97543945 -1.97181641 13.76337891 -2.24707031 14.57519531 C-4.75551958 21.74097017 -7.90433763 28.52955594 -11.265625 35.328125 C-12.4003805 37.64128044 -13.24959053 39.75794771 -14.0625 42.2265625 C-16.32439524 48.91800259 -20.97585908 53.55763376 -27 57 C-25.57887669 53.83935964 -23.71779541 51.10868382 -21.72558594 48.28222656 C-11.34274446 33.41248619 -4.95749417 17.36095017 0 0 Z " fill="#412B3F" transform="translate(644,488)"/>
<path d="M0 0 C0.33 0 0.66 0 1 0 C1.66 6.6 2.32 13.2 3 20 C3.33 20 3.66 20 4 20 C4.04241723 22.33294775 4.04092937 24.66702567 4 27 C3.67 27.33 3.34 27.66 3 28 C3 28.86625 3 29.7325 3 30.625 C3 37.56903638 1.33048818 43.53619315 -1 50 C-1.33 50 -1.66 50 -2 50 C-1.93941406 49.071875 -1.87882813 48.14375 -1.81640625 47.1875 C-0.84620485 31.47297021 -0.45055524 15.73611255 0 0 Z " fill="#985443" transform="translate(648,438)"/>
<path d="M0 0 C8.16791916 8.16791916 8.92037544 28.01693505 9.10546875 39.1875 C9.0806849 44.18196142 8.45909807 49.00950349 7.6875 53.9375 C7.4877356 55.24702637 7.4877356 55.24702637 7.28393555 56.58300781 C6.32814176 62.58317546 5.01088805 68.25460557 3 74 C1.61553195 70.21578733 2.40000593 67.46236198 3.375 63.625 C8.44659788 43.38600661 6.97600695 22.59925762 0 3 C0 2.01 0 1.02 0 0 Z " fill="#4B2A2D" transform="translate(610,421)"/>
<path d="M0 0 C6.90222224 0.40601307 12.28250573 3.26902253 18.375 6.375 C19.38433594 6.87 20.39367187 7.365 21.43359375 7.875 C22.39136719 8.35710937 23.34914063 8.83921875 24.3359375 9.3359375 C25.20782715 9.77470215 26.0797168 10.2134668 26.97802734 10.66552734 C29 12 29 12 30 15 C26.37 15.99 22.74 16.98 19 18 C19.33 17.34 19.66 16.68 20 16 C20.66 16 21.32 16 22 16 C22 15.01 22 14.02 22 13 C20.49759766 12.20335937 20.49759766 12.20335937 18.96484375 11.390625 C17.62236564 10.67714013 16.27991943 9.96359525 14.9375 9.25 C14.28072266 8.90195312 13.62394531 8.55390625 12.94726562 8.1953125 C8.58437938 5.87417105 4.27982572 3.47105672 0 1 C0 0.67 0 0.34 0 0 Z " fill="#503C61" transform="translate(801,447)"/>
<path d="M0 0 C0.58007812 0.13277344 1.16015625 0.26554688 1.7578125 0.40234375 C9.46570546 2.66861926 9.46570546 2.66861926 17.15234375 2.3125 C21.41561562 1.84465123 24.4771599 3.56855028 28.3125 5.3125 C33.83560025 7.77543747 39.08640892 9.68364131 45 11 C45 11.33 45 11.66 45 12 C37.4575025 11.48855596 30.37539862 10.06582896 23.0625 8.1875 C22.05509766 7.93935547 21.04769531 7.69121094 20.00976562 7.43554688 C13.16605684 5.70591501 6.58656495 3.53516633 0 1 C0 0.67 0 0.34 0 0 Z " fill="#3E7CB2" transform="translate(432,577)"/>
<path d="M0 0 C4.44032575 1.49356412 6.19615622 4.94433314 8.5 8.75 C9.2599627 9.97424026 10.0203758 11.19820104 10.78125 12.421875 C11.14887451 13.02104736 11.51649902 13.62021973 11.89526367 14.23754883 C12.95826264 15.93341392 14.08168753 17.59094219 15.20703125 19.24609375 C17.06778466 22.10411369 18.01766632 24.75074245 19 28 C19.33 28.33 19.66 28.66 20 29 C20.04063832 30.66617115 20.042721 32.33388095 20 34 C19.34 32.68 18.68 31.36 18 30 C17.34 30 16.68 30 16 30 C15.74307373 29.5059668 15.48614746 29.01193359 15.22143555 28.50292969 C14.04713806 26.25001235 12.8673778 23.99999953 11.6875 21.75 C11.28337891 20.97269531 10.87925781 20.19539063 10.46289062 19.39453125 C8.52207928 15.70225601 6.59636835 12.28129988 4 9 C3.29788106 7.34795544 2.63028587 5.68076231 2 4 C1.34786461 2.65949948 0.68620031 1.32338632 0 0 Z " fill="#934D46" transform="translate(593,391)"/>
<path d="M0 0 C2.96175123 0.61277612 4.38058783 1.25372522 7 3 C7.33 3.99 7.66 4.98 8 6 C8.66 6.33 9.32 6.66 10 7 C10 7.66 10 8.32 10 9 C10.66 9 11.32 9 12 9 C13.70884005 10.62339805 15.37446717 12.29319053 17 14 C17.66 14.66 18.32 15.32 19 16 C19 16.66 19 17.32 19 18 C21.13770618 19.62677091 23.2675534 21.13979644 25.5 22.625 C26.12003906 23.04523437 26.74007813 23.46546875 27.37890625 23.8984375 C28.91517264 24.93837167 30.45707524 25.96997056 32 27 C31.34 27.33 30.68 27.66 30 28 C21.86705367 22.6077801 13.71074439 17.16519661 7 10 C7 9.34 7 8.68 7 8 C6.01 7.67 5.02 7.34 4 7 C0 2.54285714 0 2.54285714 0 0 Z " fill="#214F6F" transform="translate(422,532)"/>
<path d="M0 0 C1.16807578 3.50422734 0.74835692 4.51074608 -0.375 7.9375 C-1.5158279 11.43349499 -1.5158279 11.43349499 -2.4765625 14.98046875 C-3.38052152 18.46813155 -4.77484721 21.78728499 -6.0625 25.1484375 C-8.13051451 31.43864832 -8.27700312 37.81325195 -8.5625 44.375 C-8.60568359 45.30183594 -8.64886719 46.22867188 -8.69335938 47.18359375 C-8.79876186 49.45560294 -8.90088606 51.72770925 -9 54 C-9.99 54.495 -9.99 54.495 -11 55 C-11.73820916 36.46274784 -9.03568657 16.51498693 0 0 Z " fill="#367DBE" transform="translate(409,411)"/>
<path d="M0 0 C2 1.375 2 1.375 4 3 C4 3.66 4 4.32 4 5 C4.66 5 5.32 5 6 5 C6.804375 5.969375 7.60875 6.93875 8.4375 7.9375 C14.63212243 15.38310458 22.48216767 21.03393075 30.90625 25.7109375 C32.92924621 26.9564389 34.40500107 28.25163579 36 30 C32.46250334 29.43400053 29.76710689 27.77964944 26.71875 25.96484375 C24.93280702 24.89970361 24.93280702 24.89970361 22.5625 24.125 C16.40450644 21.42149063 12.38391339 17.72793401 9 12 C6.6866263 9.33502546 4.28016196 6.77809893 1.86328125 4.20703125 C0 2 0 2 0 0 Z " fill="#1E425E" transform="translate(429,525)"/>
<path d="M0 0 C-2.49999732 1.66666488 -4.46982673 2.66929534 -7.23046875 3.7265625 C-8.03291016 4.0359375 -8.83535156 4.3453125 -9.66210938 4.6640625 C-10.49548828 4.98117187 -11.32886719 5.29828125 -12.1875 5.625 C-13.03248047 5.94984375 -13.87746094 6.2746875 -14.74804688 6.609375 C-16.83079977 7.40952866 -18.91479257 8.20626974 -21 9 C-21.33 8.34 -21.66 7.68 -22 7 C-22.71285156 7.20496094 -23.42570312 7.40992188 -24.16015625 7.62109375 C-29.43976749 9.10620647 -34.54711116 10.39412346 -40 11 C-37.47049726 9.31366484 -35.82109803 8.49220177 -33.0078125 7.59765625 C-32.22615723 7.34838379 -31.44450195 7.09911133 -30.63916016 6.84228516 C-29.8094873 6.58495605 -28.97981445 6.32762695 -28.125 6.0625 C-27.27599121 5.79743652 -26.42698242 5.53237305 -25.55224609 5.25927734 C-7.63635897 -0.2499172 -7.63635897 -0.2499172 0 0 Z " fill="#4A5B9E" transform="translate(475,333)"/>
<path d="M0 0 C0 5.54871108 -2.29212251 9.55152132 -6.0625 13.4375 C-9.73075928 16.89592241 -13.65707401 20.02211609 -17.62109375 23.1328125 C-20.4648532 25.36486015 -23.23501217 27.6715892 -26 30 C-26.66 29.67 -27.32 29.34 -28 29 C-26.3137003 27.45702052 -24.6258938 25.91568775 -22.9375 24.375 C-22.43379883 23.91424072 -21.93009766 23.45348145 -21.41113281 22.97875977 C-18.74805384 20.55238945 -16.05204199 18.20093437 -13.25 15.9375 C-9.21687053 12.52935912 -5.89791782 8.40413043 -3 4 C-3 3.34 -3 2.68 -3 2 C-2.01 1.34 -1.02 0.68 0 0 Z " fill="#573F63" transform="translate(600,518)"/>
<path d="M0 0 C3.30714992 0.98099728 4.52454546 2.57600979 6.10546875 5.484375 C6.81199258 6.90007378 7.50561776 8.32226908 8.1875 9.75 C8.54263672 10.45382812 8.89777344 11.15765625 9.26367188 11.8828125 C11.24007808 15.91813142 12.52339839 19.47584143 13 24 C12.01 24 11.02 24 10 24 C9.82984375 23.43152344 9.6596875 22.86304688 9.484375 22.27734375 C8.2528414 18.35346806 6.98544875 14.73058914 4.875 11.1875 C3.33198619 8.56437652 2.66139808 6.86605834 2 4 C1.34 3.67 0.68 3.34 0 3 C0 2.01 0 1.02 0 0 Z " fill="#A05546" transform="translate(608,399)"/>
<path d="M0 0 C1.53533914 2.87876088 2.59261798 5.68104575 3.5 8.8125 C3.85578125 10.02873047 3.85578125 10.02873047 4.21875 11.26953125 C4.4765625 12.17058594 4.734375 13.07164062 5 14 C5.35835937 15.01578125 5.71671875 16.0315625 6.0859375 17.078125 C7.56492917 22.25952582 7.21117772 27.59779571 7.125 32.9375 C7.11597656 34.00291016 7.10695313 35.06832031 7.09765625 36.16601562 C7.07423414 38.77758034 7.04143452 41.38866937 7 44 C6.67 44 6.34 44 6 44 C5.92483154 43.26998779 5.84966309 42.53997559 5.7722168 41.7878418 C5.42001963 38.4200063 5.05384075 35.05382521 4.6875 31.6875 C4.51057617 29.96563477 4.51057617 29.96563477 4.33007812 28.20898438 C3.43747961 20.12982344 1.73840811 12.63472813 -0.65356445 4.8815918 C-1 3 -1 3 0 0 Z " fill="#DC785B" transform="translate(613,422)"/>
<path d="M0 0 C0.33 0 0.66 0 1 0 C0.5456565 5.08864725 -0.32534084 9.26527047 -2.24609375 13.98828125 C-3.01539873 16.04108987 -3.52267234 18.04955341 -4 20.1875 C-4.92354274 23.70850671 -5.81392716 26.11438386 -8 29 C-8.99 29.33 -9.98 29.66 -11 30 C-10.72736328 29.19949219 -10.72736328 29.19949219 -10.44921875 28.3828125 C-9.05688195 24.25578343 -7.74540697 20.1296703 -6.5625 15.9375 C-5.38422915 11.93511967 -3.84363562 8.36085838 -1.8671875 4.69140625 C-0.85972257 2.83153821 -0.85972257 2.83153821 0 0 Z " fill="#8C5167" transform="translate(622,488)"/>
<path d="M0 0 C-3.66159944 1.90324559 -7.32373319 3.80545824 -10.98632812 5.70678711 C-12.22768012 6.35137229 -13.46889522 6.99622121 -14.70996094 7.64135742 C-18.80264393 9.76869305 -22.89957674 11.88760639 -27 14 C-28.50675293 14.77851318 -28.50675293 14.77851318 -30.04394531 15.57275391 C-30.93952148 16.02956543 -31.83509766 16.48637695 -32.7578125 16.95703125 C-33.92401123 17.55414917 -33.92401123 17.55414917 -35.11376953 18.16333008 C-37 19 -37 19 -39 19 C-39 18.34 -39 17.68 -39 17 C-37.35 16.67 -35.7 16.34 -34 16 C-34 15.34 -34 14.68 -34 14 C-32.12616097 13.20558928 -30.25087114 12.41460026 -28.375 11.625 C-27.33085938 11.18414062 -26.28671875 10.74328125 -25.2109375 10.2890625 C-22 9 -22 9 -18.6640625 7.9609375 C-15.86052082 7.29572862 -15.86052082 7.29572862 -15 5 C-4.45945946 -1.48648649 -4.45945946 -1.48648649 0 0 Z " fill="#634E8D" transform="translate(769,492)"/>
<path d="M0 0 C0.66 0.99 1.32 1.98 2 3 C1.38511719 3.72445313 0.77023437 4.44890625 0.13671875 5.1953125 C-0.67152344 6.16210938 -1.47976563 7.12890625 -2.3125 8.125 C-3.11300781 9.07632812 -3.91351563 10.02765625 -4.73828125 11.0078125 C-6.92364722 13.89898751 -8.49321178 16.71334866 -10 20 C-10.99 19.67 -11.98 19.34 -13 19 C-11.57667134 14.94388206 -9.61408397 11.82462748 -7.0625 8.375 C-6.37285156 7.43398438 -5.68320312 6.49296875 -4.97265625 5.5234375 C-3.40343854 3.51608177 -1.85661677 1.73439435 0 0 Z " fill="#31558B" transform="translate(426,384)"/>
<path d="M0 0 C-0.82242188 0.31453125 -1.64484375 0.6290625 -2.4921875 0.953125 C-4.81757519 1.84461312 -7.14172908 2.73932407 -9.46484375 3.63671875 C-11.59972716 4.46000528 -13.73706337 5.27702382 -15.87890625 6.08203125 C-19.65157802 7.52774211 -23.11515997 8.92924777 -26.4375 11.25 C-29 13 -29 13 -32 13 C-32 13.66 -32 14.32 -32 15 C-33.32 15.33 -34.64 15.66 -36 16 C-36 15.34 -36 14.68 -36 14 C-8.21139554 -2.63937714 -8.21139554 -2.63937714 0 0 Z " fill="#4060A1" transform="translate(483,353)"/>
<path d="M0 0 C0.66 0.33 1.32 0.66 2 1 C-1.75 4 -1.75 4 -4 4 C-3.67 4.99 -3.34 5.98 -3 7 C-9.69306931 10.86138614 -9.69306931 10.86138614 -11.9375 11.875 C-14.55699816 13.30381718 -16.54743815 15.11678184 -18.75 17.125 C-19.54921875 17.84945313 -20.3484375 18.57390625 -21.171875 19.3203125 C-21.77515625 19.87460937 -22.3784375 20.42890625 -23 21 C-23 18 -23 18 -21.015625 15.80078125 C-14.37169079 9.82311728 -7.6001167 4.74841497 0 0 Z " fill="#263B60" transform="translate(451,363)"/>
<path d="M0 0 C0.33 0 0.66 0 1 0 C1.02505615 0.68400879 1.0501123 1.36801758 1.07592773 2.07275391 C1.74969777 20.55247988 1.74969777 20.55247988 3 39 C0.75125398 37.24090029 0.05300822 36.25027455 -0.546875 33.41796875 C-1.2497419 22.23968176 -0.6690696 11.16936594 0 0 Z " fill="#3196CC" transform="translate(377,446)"/>
<path d="M0 0 C0.33 0 0.66 0 1 0 C1.33 4.29 1.66 8.58 2 13 C1.67 13 1.34 13 1 13 C0.95101563 13.75925781 0.90203125 14.51851563 0.8515625 15.30078125 C0.77679688 16.29464844 0.70203125 17.28851563 0.625 18.3125 C0.52058594 19.79169922 0.52058594 19.79169922 0.4140625 21.30078125 C0 24 0 24 -2 27 C-2.05827558 23.4375692 -2.09368885 19.87526181 -2.125 16.3125 C-2.14175781 15.30509766 -2.15851563 14.29769531 -2.17578125 13.25976562 C-2.18544922 11.79506836 -2.18544922 11.79506836 -2.1953125 10.30078125 C-2.20578613 9.40528564 -2.21625977 8.50979004 -2.22705078 7.5871582 C-1.97703456 4.73831743 -1.18016512 2.59105457 0 0 Z " fill="#3276B2" transform="translate(407,441)"/>
<path d="M0 0 C0.66 0.33 1.32 0.66 2 1 C1.34 2.32 0.68 3.64 0 5 C-0.99 4.67 -1.98 4.34 -3 4 C-4.98022247 4.69067729 -4.98022247 4.69067729 -7.01171875 5.87109375 C-7.76904297 6.28037109 -8.52636719 6.68964844 -9.30664062 7.11132812 C-10.09232422 7.54896484 -10.87800781 7.98660156 -11.6875 8.4375 C-12.48478516 8.87126953 -13.28207031 9.30503906 -14.10351562 9.75195312 C-16.07410554 10.82574763 -18.03909927 11.90864182 -20 13 C-19.67 13.66 -19.34 14.32 -19 15 C-20.32 14.67 -21.64 14.34 -23 14 C-22 11 -22 11 -19.89868164 9.63378906 C-18.54311157 8.95654785 -18.54311157 8.95654785 -17.16015625 8.265625 C-16.17982422 7.77449219 -15.19949219 7.28335937 -14.18945312 6.77734375 C-12.64161133 6.02130859 -12.64161133 6.02130859 -11.0625 5.25 C-9.52045898 4.47076172 -9.52045898 4.47076172 -7.94726562 3.67578125 C-2.25667856 0.85851097 -2.25667856 0.85851097 0 0 Z " fill="#233A5B" transform="translate(216,448)"/>
<path d="M0 0 C1.46224799 0.42423244 2.91973412 0.86490245 4.375 1.3125 C5.18710937 1.55613281 5.99921875 1.79976563 6.8359375 2.05078125 C9 3 9 3 11 6 C11.99 6.33 12.98 6.66 14 7 C14 7.66 14 8.32 14 9 C14.66 9 15.32 9 16 9 C16 9.99 16 10.98 16 12 C11.67841791 11.49651471 8.91821885 8.72860954 5.75 6 C5.19570313 5.5359375 4.64140625 5.071875 4.0703125 4.59375 C2.68941433 3.42372791 1.34152493 2.21496597 0 1 C0 0.67 0 0.34 0 0 Z " fill="#7C434D" transform="translate(574,376)"/>
<path d="M0 0 C-0.54723683 3.37462715 -1.0549 5.08235 -3 8 C-3.33 8.66 -3.66 9.32 -4 10 C-5.31129922 11.35500919 -6.64691687 12.68671343 -8 14 C-8.5775 14.5775 -9.155 15.155 -9.75 15.75 C-10.1625 16.1625 -10.575 16.575 -11 17 C-10.05066101 13.64566891 -9.10251165 10.30753495 -8 7 C-7.34 6.67 -6.68 6.34 -6 6 C-5.67 5.01 -5.34 4.02 -5 3 C-2.44444444 0 -2.44444444 0 0 0 Z " fill="#29466F" transform="translate(433,390)"/>
<path d="M0 0 C0.886875 -0.01417969 1.77375 -0.02835937 2.6875 -0.04296875 C5 0.1875 5 0.1875 7 2.1875 C5.22509454 3.96240546 2.62215098 3.42249973 0.21484375 3.50390625 C-1.53989258 3.56674805 -1.53989258 3.56674805 -3.33007812 3.63085938 C-4.56177734 3.67017578 -5.79347656 3.70949219 -7.0625 3.75 C-8.91584961 3.81477539 -8.91584961 3.81477539 -10.80664062 3.88085938 C-13.87097335 3.98734198 -16.93539073 4.08935424 -20 4.1875 C-16.84274244 2.08266163 -15.60149717 1.87861983 -11.9375 1.625 C-7.71327307 1.32105416 -4.24762545 0.03086937 0 0 Z " fill="#475E9F" transform="translate(513,352.8125)"/>
<path d="M0 0 C3.06255961 -0.0270491 6.1248786 -0.04686298 9.1875 -0.0625 C10.05181641 -0.07087891 10.91613281 -0.07925781 11.80664062 -0.08789062 C16.00286769 -0.10396812 19.90936886 -0.07559038 24 1 C24 1.33 24 1.66 24 2 C15.64380043 2.75475351 7.39004715 3.13605482 -1 3 C-0.67 2.01 -0.34 1.02 0 0 Z " fill="#485770" transform="translate(504,592)"/>
<path d="M0 0 C0.66 0.66 1.32 1.32 2 2 C-1.85270362 7.3345127 -5.2141641 11.75428718 -11 15 C-9.4628015 11.70270923 -7.57926258 8.79483213 -5.5 5.8125 C-4.8915625 4.93207031 -4.283125 4.05164063 -3.65625 3.14453125 C-2 1 -2 1 0 0 Z " fill="#55416E" transform="translate(628,530)"/>
<path d="M0 0 C2.79563767 2.79563767 3.72923362 6.16953613 5.0625 9.8125 C5.33126953 10.52470703 5.60003906 11.23691406 5.87695312 11.97070312 C7.23209765 15.62384835 8.38495052 19.13505944 9 23 C8.34 23 7.68 23 7 23 C3.09329964 15.42517641 0.98972055 8.4643265 0 0 Z " fill="#2FA4CF" transform="translate(383,500)"/>
<path d="M0 0 C0.66 0 1.32 0 2 0 C0.63502466 7.73486028 -2.34869035 14.68750834 -7 21 C-7.33 20.34 -7.66 19.68 -8 19 C-7.0390625 16.609375 -7.0390625 16.609375 -5.625 13.75 C-3.75396146 9.80578857 -2.35710684 6.4043177 -2 2 C-1.34 2 -0.68 2 0 2 C0 1.34 0 0.68 0 0 Z " fill="#9D5B73" transform="translate(613,493)"/>
<path d="M0 0 C0.66 0.33 1.32 0.66 2 1 C-10.54637097 10.21774194 -10.54637097 10.21774194 -17 11 C-17 10.34 -17 9.68 -17 9 C-12.49377301 5.45354084 -7.28854575 3.1154183 -2 1 C-1.34 0.67 -0.68 0.34 0 0 Z " fill="#2E3E67" transform="translate(445,346)"/>
<path d="M0 0 C5.3537465 1.55652055 10.00150947 3.9817509 14.875 6.625 C15.65875 7.04523438 16.4425 7.46546875 17.25 7.8984375 C19.16892057 8.9281022 21.08477603 9.96347567 23 11 C22.01 11.495 22.01 11.495 21 12 C19.01167955 11.28698713 17.05660372 10.4798173 15.125 9.625 C10.1831927 7.44815472 10.1831927 7.44815472 5 6 C5 5.01 5 4.02 5 3 C2.525 2.01 2.525 2.01 0 1 C0 0.67 0 0.34 0 0 Z " fill="#733A3E" transform="translate(655,372)"/>
<path d="M0 0 C0.33 0 0.66 0 1 0 C1.144375 1.134375 1.28875 2.26875 1.4375 3.4375 C1.61171478 6.80777201 1.61171478 6.80777201 3 8 C3.12569503 10.1221998 3.17576773 12.24911345 3.1875 14.375 C3.20167969 15.53773438 3.21585938 16.70046875 3.23046875 17.8984375 C3 21 3 21 1 24 C0.20318916 15.97497656 -0.12867289 8.06350113 0 0 Z " fill="#EB8A5C" transform="translate(649,435)"/>
<path d="M0 0 C0.66 0.33 1.32 0.66 2 1 C1.56367091 7.88940671 0.91610155 14.35751464 -1 21 C-1.66 20.67 -2.32 20.34 -3 20 C-3 18.68 -3 17.36 -3 16 C-2.34 16 -1.68 16 -1 16 C-1.01160156 15.09636719 -1.02320313 14.19273437 -1.03515625 13.26171875 C-1.04417969 12.08222656 -1.05320312 10.90273438 -1.0625 9.6875 C-1.07410156 8.51574219 -1.08570313 7.34398437 -1.09765625 6.13671875 C-1 3 -1 3 0 0 Z " fill="#CB6C61" transform="translate(625,467)"/>
<path d="M0 0 C4.73789165 1.44323469 8.98858151 3.37226733 13.375 5.625 C14.01566406 5.94984375 14.65632812 6.2746875 15.31640625 6.609375 C16.87947501 7.40257407 18.44000622 8.20077031 20 9 C18.02 9.99 18.02 9.99 16 11 C15.67 10.34 15.34 9.68 15 9 C13.02111039 8.27306096 11.02045442 7.60183749 9 7 C9 6.34 9 5.68 9 5 C8.43410156 4.89042969 7.86820313 4.78085937 7.28515625 4.66796875 C6.55167969 4.50941406 5.81820312 4.35085938 5.0625 4.1875 C4.33160156 4.03667969 3.60070312 3.88585937 2.84765625 3.73046875 C2.23792969 3.48941406 1.62820313 3.24835938 1 3 C0.67 2.01 0.34 1.02 0 0 Z " fill="#6E3843" transform="translate(635,362)"/>
<path d="M0 0 C1.16807578 3.50422734 0.74835692 4.51074608 -0.375 7.9375 C-1.54146474 11.53196196 -1.54146474 11.53196196 -2.53515625 15.17578125 C-3.07608892 17.29860105 -3.96829719 19.07415476 -5 21 C-5.66 20.34 -6.32 19.68 -7 19 C-6.02241999 16.20776841 -5.04301077 13.41620228 -4.0625 10.625 C-3.78470703 9.8309375 -3.50691406 9.036875 -3.22070312 8.21875 C-2.95322266 7.45820313 -2.68574219 6.69765625 -2.41015625 5.9140625 C-2.16402588 5.2123291 -1.91789551 4.5105957 -1.66430664 3.78759766 C-1 2 -1 2 0 0 Z " fill="#366DAC" transform="translate(409,411)"/>
<path d="M0 0 C5.68502535 1.64566523 10.76681636 4.29032784 16 7 C16 7.33 16 7.66 16 8 C14.741875 8.04125 13.48375 8.0825 12.1875 8.125 C11.47980469 8.14820313 10.77210938 8.17140625 10.04296875 8.1953125 C8 8 8 8 5 6 C4.34 5.67 3.68 5.34 3 5 C3 4.01 3 3.02 3 2 C2.01 1.67 1.02 1.34 0 1 C0 0.67 0 0.34 0 0 Z " fill="#8A4541" transform="translate(697,393)"/>
<path d="M0 0 C3.3497658 3.3497658 3.47927626 6.56756659 3.7890625 11.07421875 C3.7973509 13.00598803 3.7973509 13.00598803 5 14 C5.14115161 16.67058851 5.04247107 19.32432238 5 22 C4.34 21.01 3.68 20.02 3 19 C2.34 19.33 1.68 19.66 1 20 C1.01160156 19.31035156 1.02320313 18.62070312 1.03515625 17.91015625 C1.09342124 11.84227348 0.78903948 6.01642604 0 0 Z " fill="#EA845B" transform="translate(646,419)"/>
<path d="M0 0 C-1.65 0.33 -3.3 0.66 -5 1 C-1.21129234 1.31277015 -1.21129234 1.31277015 1 -0.0625 C3.48016178 -1.22507583 4.44659432 -0.76070211 7 0 C4.71220962 1.03040167 2.42048864 2.04952018 0.125 3.0625 C-0.85146484 3.50432617 -0.85146484 3.50432617 -1.84765625 3.95507812 C-3.54010541 4.69661513 -5.26868575 5.35439001 -7 6 C-7.66 5.67 -8.32 5.34 -9 5 C-9 2 -9 2 -7 0 C-3.99340864 -1.066855 -3.14820941 -1.04940314 0 0 Z " fill="#2D3B63" transform="translate(458,339)"/>
<path d="M0 0 C-3.26361594 1.53668415 -6.53690088 3.05154852 -9.8125 4.5625 C-10.74126953 5.00013672 -11.67003906 5.43777344 -12.62695312 5.88867188 C-13.51962891 6.29794922 -14.41230469 6.70722656 -15.33203125 7.12890625 C-16.56530151 7.70233765 -16.56530151 7.70233765 -17.82348633 8.28735352 C-20 9 -20 9 -23 8 C-18.13858769 4.94425512 -12.88941401 2 -7 2 C-7 1.34 -7 0.68 -7 0 C-3.98968256 -0.93423645 -3.13349732 -1.04449911 0 0 Z " fill="#565295" transform="translate(622,566)"/>
<path d="M0 0 C0.33 0.99 0.66 1.98 1 3 C0.27554688 3.59167969 -0.44890625 4.18335938 -1.1953125 4.79296875 C-6.14804091 8.84099877 -11.09687934 12.89197999 -16 17 C-16.66 16.67 -17.32 16.34 -18 16 C-12.07341663 10.57712263 -6.13842918 5.18356242 0 0 Z " fill="#312C49" transform="translate(590,531)"/>
<path d="M0 0 C-3.06655255 2.04436837 -4.87109668 2.54390211 -8.4375 3.1875 C-9.85869141 3.45626953 -9.85869141 3.45626953 -11.30859375 3.73046875 C-13.89211739 3.98919608 -15.56054763 3.81315079 -18 3 C-15.94651665 2.10404387 -13.88174343 1.23393124 -11.8125 0.375 C-10.66394531 -0.11226562 -9.51539063 -0.59953125 -8.33203125 -1.1015625 C-4.61716894 -2.10322526 -3.30361309 -1.82911911 0 0 Z " fill="#5861A3" transform="translate(572,584)"/>
<path d="M0 0 C4.84476699 2.02467874 6.73926632 5.41054064 9 10 C9.8125 13.5 9.8125 13.5 10 16 C6.00379619 12.57468245 4.17136644 8.67117486 2 4 C1.33704475 2.6648174 0.67141582 1.33094817 0 0 Z " fill="#974F4D" transform="translate(593,391)"/>
<path d="M0 0 C0.99 0.33 1.98 0.66 3 1 C1.02 1.99 1.02 1.99 -1 3 C-0.67 3.66 -0.34 4.32 0 5 C-5.29230769 8.07692308 -5.29230769 8.07692308 -8.875 7.6875 C-9.57625 7.460625 -10.2775 7.23375 -11 7 C-7.52671426 4.22137141 -3.9587532 2.01536527 0 0 Z " fill="#2B3D6B" transform="translate(280,415)"/>
<path d="M0 0 C0.33 0 0.66 0 1 0 C1 2.64 1 5.28 1 8 C1.66 8 2.32 8 3 8 C3 12.29 3 16.58 3 21 C0.33627421 15.67254842 -0.12747413 11.60014565 -0.0625 5.6875 C-0.05347656 4.61886719 -0.04445313 3.55023438 -0.03515625 2.44921875 C-0.02355469 1.64097656 -0.01195312 0.83273437 0 0 Z " fill="#3483C0" transform="translate(399,467)"/>
<path d="M0 0 C-7.92 3.96 -7.92 3.96 -16 8 C-15 5 -15 5 -12.6875 3.3125 C-10 2 -10 2 -6 2 C-6 1.34 -6 0.68 -6 0 C-2.25 -1.125 -2.25 -1.125 0 0 Z " fill="#604C89" transform="translate(718,518)"/>
<path d="M0 0 C4.11018964 3.35973367 7.94640442 6.60282237 11 11 C11 11.66 11 12.32 11 13 C10.01 13 9.02 13 8 13 C7.5875 12.0925 7.175 11.185 6.75 10.25 C4.44779518 5.97447676 2.0118868 3.6745912 -2 1 C-1.34 0.67 -0.68 0.34 0 0 Z " fill="#BE6162" transform="translate(594,382)"/>
<path d="M0 0 C1.98 0 3.96 0 6 0 C6 0.66 6 1.32 6 2 C7.65 2.33 9.3 2.66 11 3 C11 3.66 11 4.32 11 5 C11.66 5.33 12.32 5.66 13 6 C9.22495756 5.48522148 6.3825657 4.69128285 3 3 C2.01 3.495 2.01 3.495 1 4 C0.67 2.68 0.34 1.36 0 0 Z " fill="#6B4758" transform="translate(578,337)"/>
<path d="M0 0 C-1.72156096 1.01303762 -3.45261806 2.00994848 -5.1875 3 C-6.63189453 3.8353125 -6.63189453 3.8353125 -8.10546875 4.6875 C-11.04888743 6.02216758 -12.81880057 6.27915461 -16 6 C-13.49987316 3.91656096 -10.85804682 2.28566695 -8 0.75 C-7.01 0.21632813 -7.01 0.21632813 -6 -0.328125 C-3.60158317 -1.13384316 -2.35481623 -0.81998065 0 0 Z " fill="#495499" transform="translate(379,370)"/>
<path d="M0 0 C2.16537543 3.24806315 2.2382543 3.7784812 1.8125 7.4375 C1.73644531 8.19933594 1.66039062 8.96117187 1.58203125 9.74609375 C0.90106862 12.38311011 -0.25544475 13.93568799 -2 16 C-1.85764543 14.27054347 -1.71095618 12.54144346 -1.5625 10.8125 C-1.48128906 9.84957031 -1.40007813 8.88664062 -1.31640625 7.89453125 C-1.02333849 5.21350398 -0.57296246 2.6337014 0 0 Z " fill="#C86D67" transform="translate(648,472)"/>
<path d="M0 0 C4.455 1.98 4.455 1.98 9 4 C5.89448334 7.10551666 4.10801767 7.81323934 0 9 C0.33 8.34 0.66 7.68 1 7 C1.66 7 2.32 7 3 7 C3 6.01 3 5.02 3 4 C1.05990478 2.29467677 1.05990478 2.29467677 -1 1 C-0.67 0.67 -0.34 0.34 0 0 Z " fill="#69518C" transform="translate(820,456)"/>
<path d="M0 0 C2.97 0 5.94 0 9 0 C8.34 0.66 7.68 1.32 7 2 C7.33 2.66 7.66 3.32 8 4 C5.03 4 2.06 4 -1 4 C-1.33 3.34 -1.66 2.68 -2 2 C-1.34 2 -0.68 2 0 2 C0 1.34 0 0.68 0 0 Z " fill="#434C70" transform="translate(545,588)"/>
<path d="M0 0 C0.66 0.33 1.32 0.66 2 1 C2 1.66 2 2.32 2 3 C1.01 3.495 1.01 3.495 0 4 C2.475 4.99 2.475 4.99 5 6 C1.7169902 7.6415049 -1.42545033 6.51888624 -5 6 C-4.67 5.01 -4.34 4.02 -4 3 C-3.34 3 -2.68 3 -2 3 C-2 2.34 -2 1.68 -2 1 C-1.34 0.67 -0.68 0.34 0 0 Z " fill="#464B80" transform="translate(573,578)"/>
<path d="M0 0 C0.33 0.66 0.66 1.32 1 2 C-0.98 4.97 -2.96 7.94 -5 11 C-6 9 -6 9 -5.3125 5.5 C-4 2 -4 2 -1.875 0.5625 C-0.946875 0.2840625 -0.946875 0.2840625 0 0 Z " fill="#4F3755" transform="translate(612,517)"/>
<path d="M0 0 C0.66 0.33 1.32 0.66 2 1 C-2.38130557 5.58146674 -6.54843278 9.72905967 -12 13 C-10.44997253 9.11602311 -7.99523379 6.97020381 -4.875 4.25 C-3.96492188 3.45078125 -3.05484375 2.6515625 -2.1171875 1.828125 C-1.06917969 0.92320312 -1.06917969 0.92320312 0 0 Z " fill="#3D67A9" transform="translate(439,373)"/>
<path d="M0 0 C2.475 0.99 2.475 0.99 5 2 C5 3.32 5 4.64 5 6 C4.01 6.33 3.02 6.66 2 7 C0.4375 5.1875 0.4375 5.1875 -1 3 C-0.67 2.01 -0.34 1.02 0 0 Z " fill="#8E4F70" transform="translate(603,348)"/>
<path d="M0 0 C0.33 0.66 0.66 1.32 1 2 C0.34 2 -0.32 2 -1 2 C-1 2.66 -1 3.32 -1 4 C-3.64 4.66 -6.28 5.32 -9 6 C-9 6.66 -9 7.32 -9 8 C-10.32 7.67 -11.64 7.34 -13 7 C-8.71 4.69 -4.42 2.38 0 0 Z " fill="#43579A" transform="translate(291,411)"/>
<path d="M0 0 C0 3.23702819 -0.55908146 4.19821395 -2 7 C-2.68960962 8.99220557 -3.36079057 10.99105606 -4 13 C-4.99 12.67 -5.98 12.34 -7 12 C-5.44298069 7.32894208 -2.91552627 3.91294315 0 0 Z " fill="#253F65" transform="translate(420,391)"/>
<path d="M0 0 C3.18283344 1.43048694 5.57915658 3.19017243 8.1875 5.5 C8.88230469 6.1084375 9.57710937 6.716875 10.29296875 7.34375 C12 9 12 9 13 11 C7.00827651 9.1168869 3.53430196 5.0224291 0 0 Z " fill="#AF5C6B" transform="translate(580,370)"/>
<path d="M0 0 C2.475 0.495 2.475 0.495 5 1 C5 1.66 5 2.32 5 3 C5.5775 3.061875 6.155 3.12375 6.75 3.1875 C9.88690987 4.32027301 11.09167504 6.34197595 13 9 C7.97290493 7.42903279 3.97133531 4.38006951 0 1 C0 0.67 0 0.34 0 0 Z " fill="#9E5A76" transform="translate(566,369)"/>
<path d="M0 0 C-4.37384413 2.91589609 -7.70542471 4.30254716 -13 4 C-13 3.34 -13 2.68 -13 2 C-4.57142857 -0.28571429 -4.57142857 -0.28571429 0 0 Z " fill="#5568AD" transform="translate(475,333)"/>
<path d="M0 0 C-3.7559214 3.42931954 -8.23466745 4.56429083 -13 6 C-13 5.34 -13 4.68 -13 4 C-11.40233897 3.13372601 -9.79660056 2.28233535 -8.1875 1.4375 C-7.29417969 0.96183594 -6.40085937 0.48617188 -5.48046875 -0.00390625 C-3 -1 -3 -1 0 0 Z " fill="#495498" transform="translate(394,362)"/>
<path d="M0 0 C0.66 0.33 1.32 0.66 2 1 C1.01 1.33 0.02 1.66 -1 2 C-1.33 2.99 -1.66 3.98 -2 5 C-4.5625 6.1875 -4.5625 6.1875 -7 7 C-7.66 6.34 -8.32 5.68 -9 5 C-7.54735962 4.1361871 -6.0876837 3.28419546 -4.625 2.4375 C-3.40683594 1.72400391 -3.40683594 1.72400391 -2.1640625 0.99609375 C-1.44992187 0.66738281 -0.73578125 0.33867188 0 0 Z " fill="#353A61" transform="translate(584,572)"/>
<path d="M0 0 C2.93200474 2.85276137 5.64315404 5.65079784 8 9 C7.67 9.66 7.34 10.32 7 11 C4.36 8.03 1.72 5.06 -1 2 C-0.67 1.34 -0.34 0.68 0 0 Z " fill="#307CB4" transform="translate(424,520)"/>
<path d="M0 0 C-3.12988781 2.64836661 -6.0193072 4.0048268 -10 5 C-12.1875 4.546875 -12.1875 4.546875 -14 4 C-12.23494565 3.13395466 -10.46271926 2.28251358 -8.6875 1.4375 C-7.70136719 0.96183594 -6.71523438 0.48617188 -5.69921875 -0.00390625 C-3 -1 -3 -1 0 0 Z " fill="#4B579C" transform="translate(419,351)"/>
<path d="M0 0 C0 0.66 0 1.32 0 2 C-3.3111013 3.10370043 -5.24748949 2.92673641 -8.6875 2.5625 C-9.68136719 2.46066406 -10.67523438 2.35882812 -11.69921875 2.25390625 C-12.45847656 2.17011719 -13.21773438 2.08632813 -14 2 C-14 1.67 -14 1.34 -14 1 C-9.27685687 0.22887459 -4.78478822 -0.09764874 0 0 Z " fill="#384354" transform="translate(504,591)"/>
<path d="M0 0 C4.12751449 0.60698743 7.3321148 2.03810791 11 4 C9.02 4.99 9.02 4.99 7 6 C5.83054208 5.19152271 4.66449539 4.37810888 3.5 3.5625 C2.8503125 3.11003906 2.200625 2.65757812 1.53125 2.19140625 C1.0259375 1.79824219 0.520625 1.40507812 0 1 C0 0.67 0 0.34 0 0 Z " fill="#A65D82" transform="translate(591,343)"/>
<path d="M0 0 C1.88343932 3.76687864 2.22057835 5.02958963 2 9 C1.34 9 0.68 9 0 9 C-0.33 10.32 -0.66 11.64 -1 13 C-0.67 8.71 -0.34 4.42 0 0 Z " fill="#D27168" transform="translate(618,468)"/>
<path d="M0 0 C-4.455 2.97 -4.455 2.97 -9 6 C-9.66 5.67 -10.32 5.34 -11 5 C-9.23723362 2.06205603 -8.14450048 1.06192878 -4.9375 -0.3125 C-2 -1 -2 -1 0 0 Z " fill="#243857" transform="translate(460,371)"/>
<path d="M0 0 C0.99 0.66 1.98 1.32 3 2 C2.01 3.485 2.01 3.485 1 5 C-0.65 4.67 -2.3 4.34 -4 4 C-2.68 2.68 -1.36 1.36 0 0 Z " fill="#425493" transform="translate(448,340)"/>
<path d="M0 0 C-6.625 4 -6.625 4 -10 4 C-9 1 -9 1 -6.6875 -0.25 C-3.90126985 -1.0275526 -2.66561622 -0.98726527 0 0 Z " fill="#435092" transform="translate(343,388)"/>
<path d="M0 0 C0.33 0.66 0.66 1.32 1 2 C0.22265625 3.9453125 0.22265625 3.9453125 -0.9375 6.125 C-1.31777344 6.84945312 -1.69804688 7.57390625 -2.08984375 8.3203125 C-2.39019531 8.87460937 -2.69054687 9.42890625 -3 10 C-3.66 10 -4.32 10 -5 10 C-4.38545304 6.00544473 -2.29353263 3.25533664 0 0 Z " fill="#865782" transform="translate(604,514)"/>
<path d="M0 0 C0.66 0 1.32 0 2 0 C2 2.97 2 5.94 2 9 C1.01 8.34 0.02 7.68 -1 7 C-1.25 3.9375 -1.25 3.9375 -1 1 C-0.67 0.67 -0.34 0.34 0 0 Z " fill="#814843" transform="translate(617,456)"/>
<path d="M0 0 C0.99 0.33 1.98 0.66 3 1 C3 3.64 3 6.28 3 9 C2.34 8.01 1.68 7.02 1 6 C0.01 6.495 0.01 6.495 -1 7 C-0.67 4.69 -0.34 2.38 0 0 Z " fill="#CC734C" transform="translate(648,432)"/>
<path d="M0 0 C3.06006595 2.04004397 3.77157178 2.69269325 5 6 C5.125 8.75 5.125 8.75 5 11 C2.03947516 7.63576723 1.07710178 4.30840713 0 0 Z " fill="#DF795E" transform="translate(608,414)"/>
<path d="M0 0 C2.61500768 2.36595933 4.38999603 4.86049226 6 8 C5.67 8.66 5.34 9.32 5 10 C0 4.5 0 4.5 0 0 Z " fill="#30A5D3" transform="translate(392,523)"/>
<path d="M0 0 C0 4.24645065 -1.81750806 6.38524772 -4 10 C-5.125 6.25 -5.125 6.25 -4 4 C-3.34 4 -2.68 4 -2 4 C-1.34 2.68 -0.68 1.36 0 0 Z " fill="#396BAB" transform="translate(424,400)"/>
<path d="M0 0 C1.485 0.99 1.485 0.99 3 2 C3 2.99 3 3.98 3 5 C3.66 5 4.32 5 5 5 C5 6.32 5 7.64 5 9 C4.34 9 3.68 9 3 9 C2.01 6.03 1.02 3.06 0 0 Z " fill="#D36D62" transform="translate(637,394)"/>
<path d="M0 0 C3.93673644 1.31224548 6.22719294 2.91910327 9 6 C6.69 5.34 4.38 4.68 2 4 C2 3.34 2 2.68 2 2 C1.34 2 0.68 2 0 2 C0 1.34 0 0.68 0 0 Z " fill="#965774" transform="translate(571,364)"/>
<path d="M0 0 C2 3 2 3 1.625 5.1875 C1.315625 6.0846875 1.315625 6.0846875 1 7 C0 4 0 4 0 0 Z " fill="#D27158" transform="translate(640,410)"/>
<path d="M0 0 C1 4 1 4 1 4 Z " fill="#D67858" transform="translate(642,417)"/>
<path d="M0 0 C0.99 1.485 0.99 1.485 2 3 C1.34 3 0.68 3 0 3 C0 2.01 0 1.02 0 0 Z " fill="#B9675C" transform="translate(603,411)"/>
<path d="M0 0 C0.99 0 1.98 0 3 0 C2.67 0.66 2.34 1.32 2 2 C1.34 1.34 0.68 0.68 0 0 Z " fill="#B3605C" transform="translate(668,376)"/>
<path d="M0 0 C0.99 0.495 0.99 0.495 2 1 C1.01 1.495 1.01 1.495 0 2 C0 1.34 0 0.68 0 0 Z " fill="#495981" transform="translate(540,574)"/>
<path d="M0 0 C0.33 0.66 0.66 1.32 1 2 C0.34 1.67 -0.32 1.34 -1 1 C-0.67 0.67 -0.34 0.34 0 0 Z " fill="#9F626A" transform="translate(610,492)"/>
<path d="" fill="#C06F60" transform="translate(0,0)"/>
<path d="M0 0 C3 1 3 1 3 1 Z " fill="#6A557D" transform="translate(828,457)"/>
<path d="M0 0 C0.66 0 1.32 0 2 0 C1.67 0.66 1.34 1.32 1 2 C0.67 1.34 0.34 0.68 0 0 Z " fill="#D5785B" transform="translate(642,422)"/>
<path d="M0 0 C0.66 0 1.32 0 2 0 C1.67 0.66 1.34 1.32 1 2 C0.67 1.34 0.34 0.68 0 0 Z " fill="#C86C5F" transform="translate(634,397)"/>
<path d="M0 0 C0.66 0.66 1.32 1.32 2 2 C1.34 2 0.68 2 0 2 C0 1.34 0 0.68 0 0 Z " fill="#B56461" transform="translate(593,396)"/>
<path d="M0 0 C0.66 0 1.32 0 2 0 C1.67 0.66 1.34 1.32 1 2 C0.67 1.34 0.34 0.68 0 0 Z " fill="#B4645E" transform="translate(606,391)"/>
<path d="M0 0 C0.66 0.66 1.32 1.32 2 2 C1.34 2 0.68 2 0 2 C0 1.34 0 0.68 0 0 Z " fill="#9F5C66" transform="translate(578,381)"/>
<path d="M0 0 C3 1 3 1 3 1 Z " fill="#545D8A" transform="translate(515,358)"/>
<path d="M0 0 C2 1 2 1 2 1 Z " fill="#436082" transform="translate(471,591)"/>
<path d="M0 0 C2 1 2 1 2 1 Z " fill="#446182" transform="translate(486,587)"/>
<path d="M0 0 C2 1 2 1 2 1 Z " fill="#416187" transform="translate(478,585)"/>
<path d="M0 0 C2 1 2 1 2 1 Z " fill="#3D7294" transform="translate(431,583)"/>
<path d="M0 0 C2 1 2 1 2 1 Z " fill="#3A7394" transform="translate(433,581)"/>
<path d="" fill="#3C7294" transform="translate(0,0)"/>
<path d="M0 0 C2 1 2 1 2 1 Z " fill="#3283A8" transform="translate(380,558)"/>
<path d="M0 0 C2 1 2 1 2 1 Z " fill="#35759F" transform="translate(440,553)"/>
<path d="" fill="#34779E" transform="translate(0,0)"/>
<path d="M0 0 C2 1 2 1 2 1 Z " fill="#3585AD" transform="translate(330,533)"/>
<path d="M0 0 C2 1 2 1 2 1 Z " fill="#60507E" transform="translate(704,527)"/>
<path d="" fill="#317FAC" transform="translate(0,0)"/>
<path d="" fill="#3578A3" transform="translate(0,0)"/>
<path d="M0 0 C2 1 2 1 2 1 Z " fill="#3376A3" transform="translate(265,501)"/>
<path d="" fill="#A16268" transform="translate(0,0)"/>
<path d="" fill="#B76B63" transform="translate(0,0)"/>
<path d="M0 0 C2 1 2 1 2 1 Z " fill="#3085B1" transform="translate(382,482)"/>
<path d="" fill="#C06E63" transform="translate(0,0)"/>
<path d="" fill="#BB6D61" transform="translate(0,0)"/>
<path d="" fill="#347AA6" transform="translate(0,0)"/>
<path d="" fill="#61547D" transform="translate(0,0)"/>
<path d="M0 0 C2 1 2 1 2 1 Z " fill="#665476" transform="translate(830,463)"/>
<path d="M0 0 C2 1 2 1 2 1 Z " fill="#7C587A" transform="translate(796,441)"/>
<path d="" fill="#DE815C" transform="translate(0,0)"/>
<path d="" fill="#3372A2" transform="translate(0,0)"/>
<path d="" fill="#D27454" transform="translate(0,0)"/>
<path d="M0 0 C2 1 2 1 2 1 Z " fill="#DD7D5A" transform="translate(644,431)"/>
<path d="" fill="#C1705A" transform="translate(0,0)"/>
<path d="" fill="#C46D59" transform="translate(0,0)"/>
<path d="M0 0 C2 1 2 1 2 1 Z " fill="#3A598D" transform="translate(272,417)"/>
<path d="" fill="#346499" transform="translate(0,0)"/>
<path d="" fill="#BB645B" transform="translate(0,0)"/>
<path d="" fill="#AA6064" transform="translate(0,0)"/>
<path d="M0 0 C2 1 2 1 2 1 Z " fill="#426194" transform="translate(436,371)"/>
<path d="M0 0 C2 1 2 1 2 1 Z " fill="#455E91" transform="translate(473,365)"/>
<path d="M0 0 C2 1 2 1 2 1 Z " fill="#6D587B" transform="translate(547,364)"/>
<path d="M0 0 C2 1 2 1 2 1 Z " fill="#485A8E" transform="translate(383,361)"/>
<path d="M0 0 C2 1 2 1 2 1 Z " fill="#985C6B" transform="translate(606,359)"/>
<path d="M0 0 C2 1 2 1 2 1 Z " fill="#585B84" transform="translate(525,359)"/>
<path d="M0 0 C2 1 2 1 2 1 Z " fill="#545E8B" transform="translate(512,358)"/>
<path d="M0 0 C2 1 2 1 2 1 Z " fill="#50567F" transform="translate(507,344)"/>
<path d="" fill="#7A596E" transform="translate(0,0)"/>
<path d="" fill="#4D5A86" transform="translate(0,0)"/>
<path d="M0 0 C2 1 2 1 2 1 Z " fill="#4D5980" transform="translate(478,335)"/>
<path d="M0 0 C2 1 2 1 2 1 Z " fill="#50597E" transform="translate(489,333)"/>
<path d="" fill="#787877" transform="translate(0,0)"/>
<path d="" fill="#797A79" transform="translate(0,0)"/>
<path d="" fill="#797778" transform="translate(0,0)"/>
<path d="" fill="#7B7879" transform="translate(0,0)"/>
<path d="" fill="#797878" transform="translate(0,0)"/>
<path d="" fill="#7A7879" transform="translate(0,0)"/>
<path d="" fill="#79797B" transform="translate(0,0)"/>
<path d="" fill="#7A7A7B" transform="translate(0,0)"/>
<path d="" fill="#797979" transform="translate(0,0)"/>
<path d="" fill="#787877" transform="translate(0,0)"/>
<path d="" fill="#797A79" transform="translate(0,0)"/>
<path d="" fill="#787877" transform="translate(0,0)"/>
<path d="" fill="#787877" transform="translate(0,0)"/>
<path d="" fill="#787877" transform="translate(0,0)"/>
<path d="" fill="#7A7977" transform="translate(0,0)"/>
<path d="" fill="#7B7A7B" transform="translate(0,0)"/>
<path d="" fill="#7D7C79" transform="translate(0,0)"/>
<path d="" fill="#7B7C7B" transform="translate(0,0)"/>
<path d="" fill="#7C7C7A" transform="translate(0,0)"/>
<path d="" fill="#787977" transform="translate(0,0)"/>
<path d="" fill="#7A7879" transform="translate(0,0)"/>
<path d="" fill="#7A7B78" transform="translate(0,0)"/>
<path d="" fill="#7B7B7A" transform="translate(0,0)"/>
<path d="" fill="#7C7C7B" transform="translate(0,0)"/>
<path d="" fill="#7B7B7B" transform="translate(0,0)"/>
<path d="" fill="#7A7A78" transform="translate(0,0)"/>
<path d="" fill="#797A78" transform="translate(0,0)"/>
<path d="" fill="#7C7A79" transform="translate(0,0)"/>
<path d="" fill="#7D7D7A" transform="translate(0,0)"/>
<path d="" fill="#7C7F7D" transform="translate(0,0)"/>
<path d="" fill="#7C7C7C" transform="translate(0,0)"/>
<path d="" fill="#7E7E7D" transform="translate(0,0)"/>
<path d="" fill="#7D7D7D" transform="translate(0,0)"/>
<path d="" fill="#7C7D7B" transform="translate(0,0)"/>
<path d="" fill="#7E7E7D" transform="translate(0,0)"/>
<path d="" fill="#7C7C7C" transform="translate(0,0)"/>
<path d="" fill="#7F7D7E" transform="translate(0,0)"/>
<path d="" fill="#7C7C7A" transform="translate(0,0)"/>
<path d="" fill="#7F7F7E" transform="translate(0,0)"/>
<path d="" fill="#807F7F" transform="translate(0,0)"/>
<path d="" fill="#7E7E7E" transform="translate(0,0)"/>
<path d="" fill="#807F7F" transform="translate(0,0)"/>
<path d="" fill="#7E7E7F" transform="translate(0,0)"/>
<path d="" fill="#7F807F" transform="translate(0,0)"/>
<path d="" fill="#82827E" transform="translate(0,0)"/>
<path d="" fill="#7D7E7D" transform="translate(0,0)"/>
<path d="" fill="#808080" transform="translate(0,0)"/>
<path d="" fill="#7F817F" transform="translate(0,0)"/>
<path d="" fill="#838383" transform="translate(0,0)"/>
<path d="" fill="#828180" transform="translate(0,0)"/>
<path d="" fill="#777B7D" transform="translate(0,0)"/>
<path d="" fill="#7D7C7D" transform="translate(0,0)"/>
<path d="" fill="#797F80" transform="translate(0,0)"/>
<path d="" fill="#7F8081" transform="translate(0,0)"/>
<path d="" fill="#6F797F" transform="translate(0,0)"/>
<path d="" fill="#808182" transform="translate(0,0)"/>
<path d="" fill="#616173" transform="translate(0,0)"/>
<path d="" fill="#7B797B" transform="translate(0,0)"/>
<path d="" fill="#6F6972" transform="translate(0,0)"/>
<path d="" fill="#567180" transform="translate(0,0)"/>
<path d="" fill="#828182" transform="translate(0,0)"/>
<path d="" fill="#5F5F74" transform="translate(0,0)"/>
<path d="" fill="#607280" transform="translate(0,0)"/>
<path d="" fill="#818383" transform="translate(0,0)"/>
<path d="" fill="#6A757E" transform="translate(0,0)"/>
<path d="" fill="#827F80" transform="translate(0,0)"/>
<path d="" fill="#4C607D" transform="translate(0,0)"/>
<path d="" fill="#426284" transform="translate(0,0)"/>
<path d="" fill="#48547A" transform="translate(0,0)"/>
<path d="" fill="#547084" transform="translate(0,0)"/>
<path d="" fill="#50547A" transform="translate(0,0)"/>
<path d="" fill="#406385" transform="translate(0,0)"/>
<path d="" fill="#436185" transform="translate(0,0)"/>
<path d="" fill="#565A7E" transform="translate(0,0)"/>
<path d="" fill="#426083" transform="translate(0,0)"/>
<path d="" fill="#4E5C83" transform="translate(0,0)"/>
<path d="" fill="#4C597C" transform="translate(0,0)"/>
<path d="" fill="#4D5A81" transform="translate(0,0)"/>
<path d="" fill="#406387" transform="translate(0,0)"/>
<path d="" fill="#7F7E7E" transform="translate(0,0)"/>
<path d="" fill="#3B7093" transform="translate(0,0)"/>
<path d="" fill="#585A81" transform="translate(0,0)"/>
<path d="" fill="#4E6285" transform="translate(0,0)"/>
<path d="" fill="#496388" transform="translate(0,0)"/>
<path d="" fill="#4D5A80" transform="translate(0,0)"/>
<path d="" fill="#45597E" transform="translate(0,0)"/>
<path d="" fill="#3D6388" transform="translate(0,0)"/>
<path d="" fill="#58557F" transform="translate(0,0)"/>
<path d="" fill="#3F6287" transform="translate(0,0)"/>
<path d="" fill="#3F648B" transform="translate(0,0)"/>
<path d="" fill="#4B5884" transform="translate(0,0)"/>
<path d="" fill="#3F658D" transform="translate(0,0)"/>
<path d="" fill="#387DA0" transform="translate(0,0)"/>
<path d="" fill="#59537F" transform="translate(0,0)"/>
<path d="" fill="#397EA3" transform="translate(0,0)"/>
<path d="" fill="#3E658B" transform="translate(0,0)"/>
<path d="" fill="#3A7298" transform="translate(0,0)"/>
<path d="" fill="#57517D" transform="translate(0,0)"/>
<path d="" fill="#387EA1" transform="translate(0,0)"/>
<path d="" fill="#3782A5" transform="translate(0,0)"/>
<path d="" fill="#515682" transform="translate(0,0)"/>
<path d="" fill="#376891" transform="translate(0,0)"/>
<path d="" fill="#347DA2" transform="translate(0,0)"/>
<path d="" fill="#3B6890" transform="translate(0,0)"/>
<path d="" fill="#3783A7" transform="translate(0,0)"/>
<path d="" fill="#396992" transform="translate(0,0)"/>
<path d="" fill="#465C85" transform="translate(0,0)"/>
<path d="" fill="#4A5E88" transform="translate(0,0)"/>
<path d="" fill="#5C5782" transform="translate(0,0)"/>
<path d="" fill="#4E5B85" transform="translate(0,0)"/>
<path d="" fill="#3C628B" transform="translate(0,0)"/>
<path d="" fill="#5F5382" transform="translate(0,0)"/>
<path d="" fill="#5C5181" transform="translate(0,0)"/>
<path d="" fill="#5A5882" transform="translate(0,0)"/>
<path d="" fill="#3386AB" transform="translate(0,0)"/>
<path d="" fill="#36709D" transform="translate(0,0)"/>
<path d="" fill="#358AAA" transform="translate(0,0)"/>
<path d="" fill="#595582" transform="translate(0,0)"/>
<path d="" fill="#367A9E" transform="translate(0,0)"/>
<path d="" fill="#3689B1" transform="translate(0,0)"/>
<path d="" fill="#57577F" transform="translate(0,0)"/>
<path d="" fill="#35749F" transform="translate(0,0)"/>
<path d="" fill="#3287A8" transform="translate(0,0)"/>
<path d="" fill="#33779E" transform="translate(0,0)"/>
<path d="" fill="#3388AD" transform="translate(0,0)"/>
<path d="" fill="#625381" transform="translate(0,0)"/>
<path d="" fill="#33709A" transform="translate(0,0)"/>
<path d="" fill="#625681" transform="translate(0,0)"/>
<path d="" fill="#3778A4" transform="translate(0,0)"/>
<path d="" fill="#625681" transform="translate(0,0)"/>
<path d="" fill="#62557F" transform="translate(0,0)"/>
<path d="" fill="#80597A" transform="translate(0,0)"/>
<path d="" fill="#357098" transform="translate(0,0)"/>
<path d="" fill="#337EA6" transform="translate(0,0)"/>
<path d="" fill="#61547E" transform="translate(0,0)"/>
<path d="" fill="#358CB5" transform="translate(0,0)"/>
<path d="" fill="#65567E" transform="translate(0,0)"/>
<path d="" fill="#33729C" transform="translate(0,0)"/>
<path d="" fill="#7F5877" transform="translate(0,0)"/>
<path d="" fill="#33709B" transform="translate(0,0)"/>
<path d="" fill="#2F8BB0" transform="translate(0,0)"/>
<path d="" fill="#3183B0" transform="translate(0,0)"/>
<path d="" fill="#65557D" transform="translate(0,0)"/>
<path d="" fill="#925F7A" transform="translate(0,0)"/>
<path d="" fill="#3680A9" transform="translate(0,0)"/>
<path d="" fill="#3A76A2" transform="translate(0,0)"/>
<path d="" fill="#8A5C71" transform="translate(0,0)"/>
<path d="" fill="#916275" transform="translate(0,0)"/>
<path d="" fill="#3476A1" transform="translate(0,0)"/>
<path d="" fill="#3392BE" transform="translate(0,0)"/>
<path d="" fill="#327AAB" transform="translate(0,0)"/>
<path d="" fill="#3377A4" transform="translate(0,0)"/>
<path d="" fill="#895C71" transform="translate(0,0)"/>
<path d="" fill="#875F73" transform="translate(0,0)"/>
<path d="" fill="#347FA7" transform="translate(0,0)"/>
<path d="" fill="#327AA6" transform="translate(0,0)"/>
<path d="" fill="#905F6E" transform="translate(0,0)"/>
<path d="" fill="#996270" transform="translate(0,0)"/>
<path d="" fill="#3481AA" transform="translate(0,0)"/>
<path d="" fill="#3374A1" transform="translate(0,0)"/>
<path d="" fill="#3383AC" transform="translate(0,0)"/>
<path d="" fill="#625581" transform="translate(0,0)"/>
<path d="" fill="#3481A8" transform="translate(0,0)"/>
<path d="" fill="#3275A3" transform="translate(0,0)"/>
<path d="" fill="#A06069" transform="translate(0,0)"/>
<path d="" fill="#347EA7" transform="translate(0,0)"/>
<path d="" fill="#37709F" transform="translate(0,0)"/>
<path d="" fill="#B0656A" transform="translate(0,0)"/>
<path d="" fill="#34719F" transform="translate(0,0)"/>
<path d="" fill="#9F636C" transform="translate(0,0)"/>
<path d="" fill="#B76768" transform="translate(0,0)"/>
<path d="" fill="#A86667" transform="translate(0,0)"/>
<path d="" fill="#A46368" transform="translate(0,0)"/>
<path d="" fill="#36749E" transform="translate(0,0)"/>
<path d="" fill="#B56864" transform="translate(0,0)"/>
<path d="" fill="#A9656A" transform="translate(0,0)"/>
<path d="" fill="#B76963" transform="translate(0,0)"/>
<path d="" fill="#356A9C" transform="translate(0,0)"/>
<path d="" fill="#645280" transform="translate(0,0)"/>
<path d="" fill="#A76667" transform="translate(0,0)"/>
<path d="" fill="#3183AE" transform="translate(0,0)"/>
<path d="" fill="#64527E" transform="translate(0,0)"/>
<path d="" fill="#BF6F61" transform="translate(0,0)"/>
<path d="" fill="#C17263" transform="translate(0,0)"/>
<path d="" fill="#C26E60" transform="translate(0,0)"/>
<path d="" fill="#C7705F" transform="translate(0,0)"/>
<path d="" fill="#726576" transform="translate(0,0)"/>
<path d="" fill="#3C6492" transform="translate(0,0)"/>
<path d="" fill="#D2795F" transform="translate(0,0)"/>
<path d="" fill="#367FAC" transform="translate(0,0)"/>
<path d="" fill="#44648A" transform="translate(0,0)"/>
<path d="" fill="#446591" transform="translate(0,0)"/>
<path d="" fill="#39719C" transform="translate(0,0)"/>
<path d="" fill="#337BA7" transform="translate(0,0)"/>
<path d="" fill="#6C5479" transform="translate(0,0)"/>
<path d="" fill="#D87D5C" transform="translate(0,0)"/>
<path d="" fill="#357AA7" transform="translate(0,0)"/>
<path d="" fill="#7F767A" transform="translate(0,0)"/>
<path d="" fill="#767B81" transform="translate(0,0)"/>
<path d="" fill="#D77D5A" transform="translate(0,0)"/>
<path d="" fill="#D77E5A" transform="translate(0,0)"/>
<path d="" fill="#7A5575" transform="translate(0,0)"/>
<path d="" fill="#396D9E" transform="translate(0,0)"/>
<path d="" fill="#D77657" transform="translate(0,0)"/>
<path d="" fill="#C5705D" transform="translate(0,0)"/>
<path d="" fill="#CD745C" transform="translate(0,0)"/>
<path d="" fill="#885770" transform="translate(0,0)"/>
<path d="" fill="#386FA3" transform="translate(0,0)"/>
<path d="" fill="#336C9D" transform="translate(0,0)"/>
<path d="" fill="#D87B5A" transform="translate(0,0)"/>
<path d="" fill="#915E71" transform="translate(0,0)"/>
<path d="" fill="#817C7D" transform="translate(0,0)"/>
<path d="" fill="#5C6F87" transform="translate(0,0)"/>
<path d="" fill="#A06068" transform="translate(0,0)"/>
<path d="" fill="#CC7156" transform="translate(0,0)"/>
<path d="" fill="#A65F63" transform="translate(0,0)"/>
<path d="" fill="#CD7457" transform="translate(0,0)"/>
<path d="" fill="#3E6294" transform="translate(0,0)"/>
<path d="" fill="#396B9C" transform="translate(0,0)"/>
<path d="" fill="#BE6B5B" transform="translate(0,0)"/>
<path d="" fill="#3A6C9E" transform="translate(0,0)"/>
<path d="" fill="#3D679C" transform="translate(0,0)"/>
<path d="" fill="#AB6063" transform="translate(0,0)"/>
<path d="" fill="#405F9A" transform="translate(0,0)"/>
<path d="" fill="#B5665E" transform="translate(0,0)"/>
<path d="" fill="#3B6499" transform="translate(0,0)"/>
<path d="" fill="#607083" transform="translate(0,0)"/>
<path d="" fill="#44619B" transform="translate(0,0)"/>
<path d="" fill="#B6635B" transform="translate(0,0)"/>
<path d="" fill="#425E94" transform="translate(0,0)"/>
<path d="" fill="#B8625A" transform="translate(0,0)"/>
<path d="" fill="#425F94" transform="translate(0,0)"/>
<path d="" fill="#B6645F" transform="translate(0,0)"/>
<path d="" fill="#AF6563" transform="translate(0,0)"/>
<path d="" fill="#3D68A0" transform="translate(0,0)"/>
<path d="" fill="#BB655A" transform="translate(0,0)"/>
<path d="" fill="#C56B5B" transform="translate(0,0)"/>
<path d="" fill="#AF6161" transform="translate(0,0)"/>
<path d="" fill="#3A649A" transform="translate(0,0)"/>
<path d="" fill="#425E9B" transform="translate(0,0)"/>
<path d="" fill="#C0685D" transform="translate(0,0)"/>
<path d="" fill="#435D93" transform="translate(0,0)"/>
<path d="" fill="#435B91" transform="translate(0,0)"/>
<path d="" fill="#40669B" transform="translate(0,0)"/>
<path d="" fill="#B6635C" transform="translate(0,0)"/>
<path d="" fill="#A76166" transform="translate(0,0)"/>
<path d="" fill="#406297" transform="translate(0,0)"/>
<path d="" fill="#3E6597" transform="translate(0,0)"/>
<path d="" fill="#425D95" transform="translate(0,0)"/>
<path d="" fill="#B7605A" transform="translate(0,0)"/>
<path d="" fill="#445D92" transform="translate(0,0)"/>
<path d="" fill="#AA6263" transform="translate(0,0)"/>
<path d="" fill="#406298" transform="translate(0,0)"/>
<path d="" fill="#995D66" transform="translate(0,0)"/>
<path d="" fill="#3D6295" transform="translate(0,0)"/>
<path d="" fill="#465D93" transform="translate(0,0)"/>
<path d="" fill="#B65F61" transform="translate(0,0)"/>
<path d="" fill="#465C90" transform="translate(0,0)"/>
<path d="" fill="#485C90" transform="translate(0,0)"/>
<path d="" fill="#406292" transform="translate(0,0)"/>
<path d="" fill="#8C6B6F" transform="translate(0,0)"/>
<path d="" fill="#A85C63" transform="translate(0,0)"/>
<path d="" fill="#915C6A" transform="translate(0,0)"/>
<path d="" fill="#895E71" transform="translate(0,0)"/>
<path d="" fill="#416092" transform="translate(0,0)"/>
<path d="" fill="#3F6193" transform="translate(0,0)"/>
<path d="" fill="#B26362" transform="translate(0,0)"/>
<path d="" fill="#AA5D65" transform="translate(0,0)"/>
<path d="" fill="#406198" transform="translate(0,0)"/>
<path d="" fill="#A45D64" transform="translate(0,0)"/>
<path d="" fill="#875D74" transform="translate(0,0)"/>
<path d="" fill="#AE6363" transform="translate(0,0)"/>
<path d="" fill="#436092" transform="translate(0,0)"/>
<path d="" fill="#446495" transform="translate(0,0)"/>
<path d="" fill="#A35C65" transform="translate(0,0)"/>
<path d="" fill="#426090" transform="translate(0,0)"/>
<path d="" fill="#AC5F61" transform="translate(0,0)"/>
<path d="" fill="#405F91" transform="translate(0,0)"/>
<path d="" fill="#9F5D69" transform="translate(0,0)"/>
<path d="" fill="#9F5E68" transform="translate(0,0)"/>
<path d="" fill="#705E7E" transform="translate(0,0)"/>
<path d="" fill="#4D5F8B" transform="translate(0,0)"/>
<path d="" fill="#47618F" transform="translate(0,0)"/>
<path d="" fill="#9C5B65" transform="translate(0,0)"/>
<path d="" fill="#715B77" transform="translate(0,0)"/>
<path d="" fill="#A85E64" transform="translate(0,0)"/>
<path d="" fill="#9B5C67" transform="translate(0,0)"/>
<path d="" fill="#455F8C" transform="translate(0,0)"/>
<path d="" fill="#A75F66" transform="translate(0,0)"/>
<path d="" fill="#A46066" transform="translate(0,0)"/>
<path d="" fill="#456193" transform="translate(0,0)"/>
<path d="" fill="#426193" transform="translate(0,0)"/>
<path d="" fill="#706284" transform="translate(0,0)"/>
<path d="" fill="#A55966" transform="translate(0,0)"/>
<path d="" fill="#83556F" transform="translate(0,0)"/>
<path d="" fill="#485B8F" transform="translate(0,0)"/>
<path d="" fill="#505C8C" transform="translate(0,0)"/>
<path d="" fill="#4B5C8C" transform="translate(0,0)"/>
<path d="" fill="#92596B" transform="translate(0,0)"/>
<path d="" fill="#5D6092" transform="translate(0,0)"/>
<path d="" fill="#525E8E" transform="translate(0,0)"/>
<path d="" fill="#515F8F" transform="translate(0,0)"/>
<path d="" fill="#515F90" transform="translate(0,0)"/>
<path d="" fill="#935B6D" transform="translate(0,0)"/>
<path d="" fill="#8F556B" transform="translate(0,0)"/>
<path d="" fill="#975866" transform="translate(0,0)"/>
<path d="" fill="#795976" transform="translate(0,0)"/>
<path d="" fill="#90586B" transform="translate(0,0)"/>
<path d="" fill="#765977" transform="translate(0,0)"/>
<path d="" fill="#915467" transform="translate(0,0)"/>
<path d="" fill="#91576B" transform="translate(0,0)"/>
<path d="" fill="#8E5465" transform="translate(0,0)"/>
<path d="" fill="#817E7D" transform="translate(0,0)"/>
<path d="" fill="#877677" transform="translate(0,0)"/>
<path d="" fill="#475D8A" transform="translate(0,0)"/>
<path d="" fill="#7B7F82" transform="translate(0,0)"/>
<path d="" fill="#8A5369" transform="translate(0,0)"/>
<path d="" fill="#445B8C" transform="translate(0,0)"/>
<path d="" fill="#86526B" transform="translate(0,0)"/>
<path d="" fill="#645C81" transform="translate(0,0)"/>
<path d="" fill="#5F5C7F" transform="translate(0,0)"/>
<path d="" fill="#4B5C8A" transform="translate(0,0)"/>
<path d="" fill="#4B5C87" transform="translate(0,0)"/>
<path d="" fill="#5E5781" transform="translate(0,0)"/>
<path d="" fill="#5F5B85" transform="translate(0,0)"/>
<path d="" fill="#595680" transform="translate(0,0)"/>
<path d="" fill="#85546A" transform="translate(0,0)"/>
<path d="" fill="#4F5881" transform="translate(0,0)"/>
<path d="" fill="#475A85" transform="translate(0,0)"/>
<path d="" fill="#495985" transform="translate(0,0)"/>
<path d="" fill="#535A82" transform="translate(0,0)"/>
<path d="" fill="#637085" transform="translate(0,0)"/>
<path d="" fill="#52597F" transform="translate(0,0)"/>
<path d="" fill="#505C83" transform="translate(0,0)"/>
<path d="" fill="#50597E" transform="translate(0,0)"/>
<path d="" fill="#50587F" transform="translate(0,0)"/>
<path d="" fill="#53577A" transform="translate(0,0)"/>
<path d="" fill="#4D597C" transform="translate(0,0)"/>
<path d="" fill="#50557B" transform="translate(0,0)"/>
<path d="" fill="#515A7F" transform="translate(0,0)"/>
<path d="" fill="#837F7C" transform="translate(0,0)"/>
<path d="" fill="#605B74" transform="translate(0,0)"/>
<path d="" fill="#8A7A77" transform="translate(0,0)"/>
<path d="" fill="#828484" transform="translate(0,0)"/>
<path d="" fill="#847E7D" transform="translate(0,0)"/>
<path d="" fill="#818383" transform="translate(0,0)"/>
<path d="" fill="#827E7C" transform="translate(0,0)"/>
<path d="" fill="#867D7B" transform="translate(0,0)"/>
<path d="" fill="#847876" transform="translate(0,0)"/>
<path d="" fill="#857C76" transform="translate(0,0)"/>
<path d="" fill="#7F7979" transform="translate(0,0)"/>
<path d="" fill="#7F8081" transform="translate(0,0)"/>
<path d="" fill="#7F807E" transform="translate(0,0)"/>
<path d="" fill="#7B7C7B" transform="translate(0,0)"/>
<path d="" fill="#7F7F7F" transform="translate(0,0)"/>
<path d="" fill="#807E7D" transform="translate(0,0)"/>
<path d="" fill="#807E80" transform="translate(0,0)"/>
<path d="" fill="#7A7979" transform="translate(0,0)"/>
<path d="" fill="#7F807D" transform="translate(0,0)"/>
<path d="" fill="#7F7D7C" transform="translate(0,0)"/>
<path d="" fill="#7F7E7C" transform="translate(0,0)"/>
<path d="" fill="#7E7D7E" transform="translate(0,0)"/>
<path d="" fill="#7F8180" transform="translate(0,0)"/>
<path d="" fill="#7F7D7D" transform="translate(0,0)"/>
<path d="" fill="#7F7E7C" transform="translate(0,0)"/>
<path d="" fill="#807F80" transform="translate(0,0)"/>
<path d="" fill="#7D7D7C" transform="translate(0,0)"/>
<path d="" fill="#7F7F80" transform="translate(0,0)"/>
<path d="" fill="#807F80" transform="translate(0,0)"/>
<path d="" fill="#7E7E7C" transform="translate(0,0)"/>
<path d="" fill="#7F7E7D" transform="translate(0,0)"/>
<path d="" fill="#7F7E7C" transform="translate(0,0)"/>
<path d="" fill="#807F80" transform="translate(0,0)"/>
<path d="" fill="#7F7E7E" transform="translate(0,0)"/>
<path d="" fill="#80807F" transform="translate(0,0)"/>
</svg>
